<svg xmlns="http://www.w3.org/2000/svg" width="454" height="950" viewBox="0 0 340.5 712.5"><clipPath id="a"><path transform="scale(.24)" d="M0 0h1418.75v2968.75H0z" fill-rule="evenodd"/></clipPath><g clip-path="url(#a)"><path d="M0 0h340.5v712.5H0z" fill="#fff"/></g><clipPath id="b"><path transform="scale(.24)" d="M0 0h1418.75v2968.75H0z" fill-rule="evenodd"/></clipPath><g clip-path="url(#b)"><path d="M0 0h340.5v712.5H0z" fill="#fff"/></g><clipPath id="c"><path transform="scale(.24)" d="M0 0h1418.75v2968.75H0z" fill-rule="evenodd"/></clipPath><g clip-path="url(#c)"><g opacity=".2"><clipPath id="d"><path transform="translate(213.84) scale(.24)" d="M0 0h528v469H0z" fill-rule="evenodd"/></clipPath><g clip-path="url(#d)"><clipPath id="e"><path transform="translate(213.84) scale(.24)" d="M421.762-338.175 791.996 137.94l-431.71 335.704L-9.95-2.47l431.711-335.704z"/></clipPath><g clip-path="url(#e)"><clipPath id="f"><path transform="translate(213.84) scale(.24)" d="M421.762-338.175 791.996 137.94l-431.71 335.704L-9.95-2.47l431.711-335.704z"/></clipPath><g clip-path="url(#f)"><path d="M352.017 62.79c6.039-12.784 6.995-25.67 2.693-36.288-8.444-20.842-7.873-36.166-7.457-47.355.418-11.23.671-18.009-9.175-20.867-13.783-4.002-22.867 2.985-32.484 10.382-9.652 7.423-19.632 15.1-35.487 13.116-12.253-1.534-22.344-1.041-29.993 1.462-6.757 2.212-11.26 5.934-13.02 10.765-2.92 8.012 2.186 17.714 13.007 24.72 11.657 7.546 14.481 16.147 18.057 27.036 3.174 9.665 7.027 21.403 18.309 35.91a131.28 131.28 0 0 0 5.137 6.195c5.985 6.792 13.253 10.407 21.604 10.742 7.42.3 15.465-2.091 23.264-6.912 10.673-6.596 19.984-17.132 25.545-28.906zm-25.84 28.43c-16.568 10.241-33.074 8.848-44.152-3.725-15.257-17.317-19.737-30.953-23.335-41.909-2.32-7.064-4.326-13.173-8.6-18.67-2.377-3.057-5.458-5.926-9.684-8.662-10.594-6.857-15.612-16.3-12.785-24.057 3.747-10.283 19.604-14.718 42.416-11.864 16.084 2.013 26.157-5.735 35.898-13.227 9.502-7.308 18.476-14.21 31.987-10.288 9.425 2.736 9.193 8.977 8.771 20.309-.419 11.239-.992 26.632 7.498 47.585 4.242 10.47 3.29 23.198-2.68 35.839-5.517 11.678-14.75 22.127-25.333 28.668zm26.014-65.187c-7.991-19.722-7.451-34.223-7.057-44.81.396-10.636.636-17.056-8.694-19.765-13.053-3.789-21.653 2.825-30.758 9.828-9.131 7.024-18.574 14.286-33.574 12.41-21.86-2.735-37.084 1.595-40.724 11.582-2.766 7.59 2.069 16.78 12.316 23.413 11.027 7.14 13.7 15.277 17.083 25.58 3.005 9.148 6.652 20.259 17.33 33.99a124.067 124.067 0 0 0 4.864 5.864c5.666 6.431 12.549 9.854 20.456 10.172 7.026.283 14.642-1.98 22.027-6.544 10.103-6.245 18.917-16.219 24.181-27.364 5.717-12.102 6.623-24.304 2.55-34.356zm-27.026 61.243c-15.674 9.688-31.289 8.372-41.768-3.522-14.439-16.388-18.677-29.29-22.082-39.658-2.196-6.687-4.095-12.47-8.14-17.674-2.252-2.895-5.168-5.61-9.17-8.201-10.02-6.487-14.768-15.417-12.095-22.75 3.545-9.725 18.546-13.92 40.129-11.219 15.228 1.905 24.763-5.43 33.985-12.522 8.99-6.914 17.48-13.444 30.26-9.734 8.91 2.587 8.69 8.49 8.29 19.205-.396 10.639-.939 25.21 7.097 45.042 4.013 9.906 3.113 21.947-2.537 33.907-5.219 11.05-13.955 20.937-23.969 27.126zm24.506-61.712c-7.538-18.602-7.028-32.28-6.656-42.267.374-10.042.6-16.102-8.214-18.661-12.32-3.577-20.437 2.665-29.03 9.274-8.612 6.624-17.518 13.474-31.661 11.704-20.631-2.58-35 1.508-38.436 10.938-2.612 7.165 1.95 15.842 11.625 22.106 10.398 6.732 12.919 14.406 16.11 24.123 2.834 8.631 6.277 19.116 16.351 32.07 1.397 1.797 2.921 3.64 4.588 5.533 5.35 6.071 11.846 9.302 19.31 9.602 6.631.267 13.82-1.869 20.788-6.176 9.534-5.893 17.851-15.305 22.82-25.822 5.395-11.422 6.249-22.936 2.405-32.424zm-25.519 57.769c-15 9.271-29.355 8.061-39.383-3.32-13.62-15.457-17.617-27.628-20.828-37.407-2.072-6.31-3.864-11.768-7.682-16.678-2.125-2.732-4.878-5.296-8.655-7.74-9.447-6.116-13.922-14.533-11.403-21.445 3.34-9.166 17.486-13.12 37.84-10.573 14.372 1.798 23.37-5.123 32.072-11.816 8.477-6.52 16.484-12.678 28.532-9.18 8.394 2.436 8.187 8 7.81 18.102-.374 10.038-.886 23.785 6.697 42.498 3.784 9.34 2.935 20.696-2.393 31.974-4.923 10.422-13.163 19.747-22.607 25.585zm22.999-58.237c-7.083-17.483-6.605-30.338-6.255-39.724.352-9.447.565-15.149-7.733-17.558-11.59-3.365-19.222 2.505-27.302 8.72-8.093 6.225-16.462 12.661-29.75 10.999-19.4-2.427-32.914 1.42-36.147 10.292-2.458 6.744 1.834 14.907 10.934 20.799 9.77 6.325 12.138 13.536 15.136 22.666 2.665 8.115 5.902 17.972 15.373 30.151a110.108 110.108 0 0 0 4.314 5.201c5.03 5.71 11.142 8.75 18.163 9.032 6.236.25 12.996-1.757 19.55-5.808 8.964-5.54 16.784-14.39 21.456-24.279 5.073-10.74 5.876-21.569 2.26-30.491zm-24.012 54.293c-14.093 8.711-27.578 7.575-36.998-3.117-12.8-14.527-16.556-25.966-19.575-35.156-1.948-5.934-3.633-11.065-7.223-15.682-1.998-2.57-4.588-4.98-8.14-7.28-8.872-5.745-13.077-13.649-10.712-20.138 3.137-8.608 16.427-12.32 35.55-9.927 13.517 1.691 21.979-4.817 30.161-11.11 7.965-6.126 15.488-11.912 26.804-8.627 7.877 2.287 7.683 7.512 7.33 17-.352 9.436-.833 22.36 6.295 39.954 7.669 18.926-5.956 43.244-23.492 54.083zm21.492-54.762c-6.63-16.363-6.181-28.395-5.854-37.18.33-8.853.528-14.196-7.252-16.455-10.859-3.153-18.007 2.345-25.576 8.167-7.573 5.824-15.404 11.848-27.836 10.292-18.172-2.273-30.829 1.333-33.859 9.646-2.304 6.322 1.717 13.974 10.243 19.493 9.14 5.917 11.357 12.666 14.163 21.21 2.495 7.598 5.526 16.827 14.394 28.231a103.104 103.104 0 0 0 4.04 4.871c4.712 5.35 10.437 8.196 17.015 8.46 5.842.236 12.174-1.645 18.312-5.44 8.395-5.188 15.719-13.475 20.093-22.736 4.751-10.06 5.503-20.202 2.117-28.559zm-22.505 50.82c-13.185 8.148-25.8 7.086-34.613-2.915-11.979-13.596-15.496-24.304-18.321-32.907-1.825-5.556-3.403-10.361-6.766-14.685-1.871-2.407-4.297-4.666-7.625-6.82-8.299-5.372-12.232-12.764-10.02-18.83 2.934-8.051 15.368-11.52 33.262-9.282 12.66 1.584 20.585-4.511 28.248-10.405 7.452-5.732 14.492-11.146 25.077-8.073 7.36 2.137 7.18 7.024 6.849 15.896-.33 8.836-.78 20.938 5.895 37.412 7.175 17.709-5.575 40.465-21.986 50.608zm19.985-51.289c-6.176-15.243-5.759-26.452-5.454-34.637.308-8.258.492-13.243-6.771-15.351-10.127-2.94-16.792 2.185-23.848 7.613-7.053 5.425-14.347 11.035-25.924 9.586-16.942-2.12-28.743 1.246-31.57 9.001-2.15 5.9 1.599 13.038 9.552 18.186 8.511 5.51 10.575 11.796 13.189 19.754 2.325 7.08 5.15 15.682 13.415 26.311a96.126 96.126 0 0 0 3.765 4.54c4.395 4.988 9.735 7.643 15.869 7.89 5.447.22 11.351-1.535 17.074-5.072 7.825-4.837 14.652-12.562 18.73-21.194 4.43-9.378 5.13-18.834 1.973-26.627zm-20.998 47.344c-12.276 7.589-24.023 6.6-32.228-2.712-11.16-12.668-14.436-22.64-17.068-30.655-1.7-5.179-3.172-9.659-6.307-13.69-1.745-2.244-4.006-4.35-7.11-6.359-7.725-5-11.387-11.88-9.33-17.523 2.731-7.493 14.31-10.722 30.974-8.637 11.804 1.476 19.192-4.205 26.336-9.699 6.94-5.338 13.495-10.38 23.35-7.519 6.844 1.987 6.675 6.535 6.367 14.793-.306 8.235-.726 19.514 5.495 34.868 6.682 16.492-5.194 37.686-20.479 47.133zm18.478-47.812c-5.722-14.124-5.335-24.51-5.053-32.094.286-7.663.458-12.289-6.29-14.248-9.396-2.728-15.577 2.026-22.121 7.06-6.535 5.025-13.291 10.221-24.013 8.88-15.711-1.965-26.657 1.158-29.28 8.356-1.996 5.476 1.481 12.1 8.861 16.879 7.882 5.103 9.794 10.925 12.215 18.296 2.156 6.565 4.774 14.539 12.436 24.392a89.154 89.154 0 0 0 3.49 4.208c4.078 4.628 9.032 7.091 14.723 7.32 5.053.203 10.529-1.423 15.836-4.704 7.256-4.484 13.586-11.647 17.367-19.651 4.108-8.697 4.758-17.467 1.83-24.694zm-19.49 43.869c-11.37 7.027-22.247 6.112-29.844-2.51-10.34-11.737-13.376-20.978-15.814-28.404-1.577-4.803-2.941-8.956-5.848-12.694-1.619-2.082-3.717-4.035-6.595-5.899-7.15-4.63-10.542-10.995-8.64-16.217 2.528-6.934 13.251-9.921 28.685-7.99 10.95 1.369 17.8-3.899 24.423-8.994 6.429-4.944 12.5-9.614 21.623-6.965 6.33 1.838 6.172 6.048 5.887 13.69-.284 7.634-.674 18.09 5.094 32.324 6.19 15.276-4.812 34.907-18.971 43.659zm16.97-44.338c-5.268-13.004-4.912-22.567-4.652-29.55.263-7.07.422-11.336-5.81-13.145-8.664-2.516-14.361 1.866-20.393 6.505-6.015 4.626-12.234 9.41-22.1 8.176-14.482-1.812-24.572 1.07-26.992 7.71-1.842 5.054 1.365 11.167 8.17 15.572 7.254 4.696 9.014 10.055 11.242 16.84 1.986 6.048 4.398 13.394 11.458 22.472a82.154 82.154 0 0 0 3.215 3.878c3.76 4.267 8.327 6.537 13.575 6.749 4.659.187 9.706-1.312 14.598-4.336 6.687-4.132 12.52-10.733 16.004-18.109 3.786-8.016 4.385-16.1 1.685-22.762zm-17.983 40.394c-10.461 6.466-20.47 5.625-27.459-2.307-9.52-10.807-12.315-19.316-14.561-26.154-1.453-4.425-2.71-8.253-5.389-11.698-1.492-1.919-3.426-3.72-6.08-5.438-6.578-4.258-9.697-10.11-7.949-14.91 2.325-6.376 12.192-9.123 26.396-7.345 10.094 1.262 16.407-3.592 22.511-8.288 5.916-4.55 11.504-8.847 19.896-6.411 5.812 1.688 5.668 5.559 5.406 12.586-.262 7.034-.62 16.667 4.693 29.782 5.697 14.059-4.431 32.128-17.464 40.183zm15.464-40.862c-4.815-11.885-4.49-20.625-4.252-27.007.24-6.475.387-10.383-5.329-12.042-7.933-2.303-13.147 1.706-18.666 5.952-5.496 4.226-11.178 8.596-20.188 7.47-13.252-1.659-22.487.982-24.703 7.064-1.688 4.632 1.248 10.23 7.479 14.265 6.624 4.29 8.232 9.185 10.268 15.384 1.816 5.531 4.023 12.25 10.479 20.552a74.958 74.958 0 0 0 2.941 3.547c3.442 3.906 7.624 5.985 12.429 6.178 4.263.172 8.883-1.2 13.36-3.967 12.102-7.48 21.492-24.292 16.182-37.396zm-16.477 36.919c-9.553 5.905-18.692 5.138-25.073-2.105-8.702-9.876-11.256-17.654-13.308-23.903-1.33-4.049-2.48-7.55-4.931-10.702-1.366-1.756-3.135-3.405-5.565-4.977-6.003-3.887-8.853-9.227-7.257-13.603 2.12-5.82 11.133-8.324 24.107-6.7 9.239 1.155 15.014-3.287 20.599-7.582 5.403-4.157 10.507-8.082 18.168-5.858 5.296 1.537 5.164 5.07 4.926 11.483-.24 6.433-.568 15.243 4.292 27.238 5.203 12.842-4.05 29.35-15.958 36.709zm13.957-37.388C327.67 11.52 327.965 3.602 328.18-2.18c.219-5.88.35-9.43-4.848-10.94-7.203-2.09-11.933 1.547-16.94 5.398-4.976 3.827-10.12 7.784-18.275 6.764-12.022-1.504-20.401.896-22.414 6.42-1.534 4.209 1.13 9.295 6.788 12.958 5.996 3.881 7.451 8.315 9.294 13.927 1.647 5.015 3.647 11.105 9.5 18.633a68.185 68.185 0 0 0 2.667 3.215c3.124 3.546 6.92 5.432 11.282 5.608 3.869.156 8.06-1.09 12.122-3.6 10.976-6.783 19.492-22.032 14.675-33.92zm-14.97 33.444c-8.645 5.344-16.915 4.65-22.688-1.902-7.882-8.945-10.196-15.991-12.055-21.652-1.206-3.672-2.249-6.847-4.472-9.707-1.24-1.593-2.845-3.088-5.05-4.516-5.43-3.515-8.008-8.342-6.567-12.296C268.148.394 276.304-1.87 288.05-.4c8.382 1.048 13.62-2.98 18.685-6.876 4.892-3.762 9.513-7.316 16.442-5.304 4.78 1.387 4.66 4.582 4.444 10.38-.217 5.832-.515 13.819 3.892 24.695 4.711 11.625-3.668 26.57-14.45 33.233zm12.45-33.913c-3.907-9.644-3.643-16.739-3.45-21.92.197-5.285.315-8.476-4.368-9.835-6.47-1.879-10.716 1.387-15.211 4.844-4.456 3.427-9.064 6.971-16.363 6.058-10.793-1.35-18.316.808-20.126 5.774-1.38 3.787 1.014 8.36 6.098 11.652 5.366 3.474 6.67 7.444 8.32 12.47 1.478 4.498 3.271 9.96 8.522 16.713a60.98 60.98 0 0 0 2.392 2.884c5.285 6 13.143 6.675 21.018 1.807 9.85-6.089 17.492-19.775 13.168-30.447zm-13.463 29.97c-7.737 4.782-15.137 4.163-20.303-1.7-7.062-8.017-9.136-14.33-10.802-19.402-1.082-3.294-2.017-6.144-4.013-8.71-1.113-1.431-2.555-2.774-4.535-4.056-4.857-3.144-7.163-7.457-5.876-10.99 1.714-4.702 9.015-6.725 19.53-5.41 7.527.943 12.228-2.673 16.774-6.17 4.38-3.367 8.516-6.549 14.714-4.75 4.262 1.238 4.157 4.094 3.964 9.278-.195 5.23-.461 12.395 3.491 22.15 4.218 10.41-3.288 23.792-12.944 29.76zm10.943-30.438c-3.454-8.526-3.22-14.797-3.05-19.377.175-4.69.28-7.523-3.886-8.733-5.74-1.666-9.502 1.228-13.485 4.29-3.936 3.029-8.007 6.16-14.45 5.353-9.562-1.196-16.23.721-17.837 5.128-1.226 3.365.896 7.426 5.406 10.346 4.737 3.066 5.889 6.573 7.347 11.014 1.307 3.98 2.895 8.816 7.543 14.793.644.828 1.348 1.68 2.118 2.553 4.686 5.32 11.652 5.919 18.633 1.604 8.725-5.392 15.492-17.517 11.661-26.971zm-11.955 26.495c-6.83 4.22-13.36 3.675-17.919-1.498-6.242-7.085-8.075-12.667-9.548-17.15-.959-2.918-1.787-5.442-3.555-7.716-.986-1.268-2.264-2.458-4.02-3.594-4.282-2.773-6.318-6.573-5.184-9.683 1.51-4.145 7.956-5.926 17.241-4.764 6.671.834 10.835-2.368 14.861-5.465 3.867-2.974 7.52-5.783 12.987-4.196 3.747 1.087 3.653 3.605 3.483 8.174-.173 4.63-.409 10.97 3.09 19.607 3.724 9.192-2.906 21.012-11.436 26.285zm9.435-26.964c-3-7.405-2.797-12.854-2.649-16.833.147-3.956.245-6.57-3.406-7.63-5.008-1.454-8.286 1.068-11.757 3.737-3.417 2.628-6.95 5.346-12.538 4.647-8.333-1.042-14.145.633-15.548 4.483-1.072 2.942.778 6.49 4.715 9.038 4.108 2.66 5.108 5.704 6.374 9.558 1.138 3.464 2.519 7.672 6.564 12.873.56.721 1.173 1.462 1.843 2.222 4.088 4.64 10.162 5.164 16.249 1.402 7.598-4.697 13.492-15.26 10.153-23.497zm-10.448 23.02c-5.922 3.66-11.583 3.188-15.534-1.296-5.423-6.153-7.016-11.003-8.295-14.9-.834-2.54-1.556-4.738-3.096-6.718-.86-1.105-1.974-2.143-3.505-3.134-3.71-2.4-5.473-5.689-4.494-8.376 1.308-3.587 6.897-5.127 14.953-4.119 5.815.728 9.442-2.061 12.948-4.758 3.355-2.58 6.524-5.018 11.26-3.643 3.23.938 3.15 3.117 3.002 7.07-.15 4.03-.356 9.548 2.69 17.065 3.232 7.975-2.525 18.233-9.929 22.809zm7.929-23.49c-2.547-6.284-2.375-10.91-2.249-14.288.126-3.382.21-5.617-2.925-6.527-4.277-1.242-7.072.908-10.03 3.183-2.898 2.229-5.894 4.533-10.626 3.941-7.102-.888-12.06.546-13.26 3.838-.918 2.519.662 5.554 4.025 7.731 3.48 2.252 4.327 4.834 5.4 8.101.968 2.948 2.143 6.528 5.585 10.954.477.613.999 1.244 1.568 1.89 3.49 3.96 8.673 4.409 13.865 1.2 6.473-4 11.492-13 8.647-20.022zm-8.942 19.546c-5.014 3.1-9.806 2.701-13.149-1.092-4.603-5.223-5.955-9.342-7.042-12.65-.71-2.163-1.325-4.035-2.637-5.722-.733-.943-1.684-1.828-2.99-2.674-3.135-2.03-4.628-4.804-3.802-7.07 1.104-3.028 5.837-4.326 12.663-3.472 4.96.62 8.188-1.862 11.037-4.053 2.842-2.187 5.528-4.252 9.532-3.09 2.714.788 2.65 2.52 2.521 5.969-.127 3.428-.302 8.123 2.29 14.52 2.738 6.759-2.144 15.454-8.423 19.334z" fill="#707991"/></g></g></g></g><g opacity=".2"><clipPath id="g"><path transform="matrix(.24 0 0 .24 0 592.8)" d="M0 0h495v499H0z"/></clipPath><g clip-path="url(#g)"><clipPath id="h"><path transform="matrix(.24 0 0 .24 0 592.8)" d="m177.083 712.575-388.715-415.184L105.46.516l388.715 415.183-317.091 296.876z"/></clipPath><g clip-path="url(#h)"><clipPath id="i"><path transform="matrix(.24 0 0 .24 0 592.8)" d="m177.083 712.575-388.715-415.184L105.46.516l388.715 415.183-317.091 296.876z"/></clipPath><g clip-path="url(#i)" fill="#707991"><path d="M-22.167 649.097c-2.079 9.998-1.949 20.091-1.474 26.797.796 11.24 3.813 19.526 9.493 26.077 5.118 5.905 11.952 9.86 19.186 14.049 4.894 2.834 9.956 5.764 15.046 9.558 10.863 8.095 22.177 11.84 33.63 11.133 12.603-.78 25.195-6.981 37.429-18.435 13.263-12.417 15.799-18.42 9.792-39.99-1.23-4.414-2.852-7.68-5.028-10.005-1.544-1.648-3.366-2.823-5.523-3.595-4.807-1.723-10.838-1.33-18.475-.831-5.121.334-10.925.713-17.422.498-13.818-.455-21.17-11.383-28.28-21.951-5.96-8.861-11.59-17.23-20.597-18.695-7.032-1.144-12.983.455-17.688 4.752-4.75 4.338-8.144 11.282-10.09 20.638zm27.69-24.855c8.775 1.427 14.341 9.702 20.235 18.462 7.185 10.682 14.616 21.727 28.712 22.191 6.523.215 12.341-.164 17.475-.5 10.743-.7 18.444-1.203 23.552 4.254 2.044 2.183 3.673 5.321 4.915 9.781 3.115 11.184 3.785 17.622 2.392 22.962-1.51 5.781-5.554 10.424-12.032 16.489-29.344 27.473-54.461 19.113-70.364 7.262-5.115-3.812-10.19-6.751-15.098-9.592-6.994-4.05-13.297-7.7-18.198-12.934-5.55-5.928-9.3-13.888-10.212-26.761-.57-8.063-1.438-35.282 11.388-46.996 4.576-4.18 10.375-5.734 17.234-4.618z"/><path d="M-20.003 651.247c-1.973 9.488-1.85 19.067-1.398 25.432.755 10.668 3.618 18.533 9.01 24.752 4.858 5.607 11.344 9.359 18.21 13.334 4.644 2.689 9.447 5.47 14.276 9.068 10.31 7.684 21.05 11.24 31.92 10.567 11.963-.739 23.916-6.625 35.526-17.496 12.59-11.788 14.998-17.486 9.296-37.962-1.167-4.19-2.708-7.291-4.775-9.498-1.466-1.567-3.197-2.682-5.245-3.416-4.564-1.635-10.29-1.262-17.537-.79-4.86.318-10.367.677-16.53.474-13.106-.431-20.08-10.798-26.825-20.825-5.658-8.41-11.002-16.353-19.554-17.745-6.677-1.086-12.328.432-16.796 4.513-4.509 4.119-7.731 10.71-9.578 19.592zm26.287-23.57c8.32 1.354 13.601 9.204 19.192 17.514 6.82 10.14 13.873 20.623 27.256 21.064 6.19.203 11.712-.157 16.583-.474 14.267-.932 22.878-1.494 27 13.307 2.954 10.61 3.59 16.716 2.269 21.78-1.431 5.484-5.269 9.888-11.414 15.64-27.838 26.064-51.665 18.133-66.75 6.89-4.855-3.617-9.672-6.406-14.33-9.102-6.635-3.842-12.614-7.303-17.264-12.27-5.264-5.623-8.822-13.176-9.687-25.386-.542-7.65-1.364-33.472 10.802-44.584 4.339-3.963 9.838-5.436 16.343-4.378z"/><path d="M-19.162 677.463c1.56 22.035 12.776 28.528 25.762 36.047 4.393 2.544 8.937 5.175 13.506 8.58 9.758 7.271 19.923 10.636 30.212 10 11.322-.699 22.634-6.27 33.622-16.557 11.918-11.159 14.196-16.552 8.8-35.934-1.106-3.966-2.565-6.903-4.522-8.993-1.389-1.483-3.028-2.54-4.969-3.235-4.322-1.549-9.74-1.195-16.599-.748-4.596.3-9.807.64-15.638.448-12.393-.408-18.99-10.214-25.37-19.697-5.354-7.96-10.412-15.479-18.51-16.796-6.323-1.029-11.673.41-15.904 4.273-11.685 10.674-10.907 35.314-10.39 42.612zm26.206-46.35c7.867 1.28 12.861 8.703 18.15 16.564 6.454 9.596 13.13 19.519 25.8 19.936 5.858.193 11.082-.148 15.692-.448 13.491-.88 21.634-1.411 25.53 12.58 2.795 10.036 3.398 15.811 2.148 20.6-1.353 5.186-4.983 9.35-10.795 14.792-26.332 24.653-48.87 17.152-63.139 6.518-4.594-3.424-9.151-6.063-13.559-8.614-6.276-3.634-11.932-6.909-16.33-11.606-4.98-5.319-8.345-12.462-9.163-24.01-.512-7.237-1.29-31.664 10.216-42.173 4.102-3.746 9.3-5.139 15.45-4.139z"/><path d="M-16.923 678.247c1.473 20.789 12.053 26.915 24.304 34.008 4.143 2.4 8.428 4.88 12.736 8.09 9.206 6.861 18.796 10.035 28.503 9.436 10.68-.66 21.353-5.916 31.718-15.62 11.245-10.529 13.395-15.617 8.303-33.904-1.042-3.743-2.42-6.515-4.267-8.488-1.311-1.4-2.86-2.399-4.692-3.055-4.079-1.461-9.19-1.128-15.66-.706-4.335.283-9.25.604-14.748.422-11.68-.384-17.898-9.628-23.913-18.569-5.052-7.51-9.824-14.604-17.468-15.847-5.967-.97-11.018.387-15.012 4.034-11.026 10.07-10.292 33.314-9.804 40.199zm24.728-43.698c7.413 1.206 12.122 8.205 17.106 15.615 6.09 9.053 12.389 18.414 24.345 18.808 5.526.182 10.454-.14 14.801-.423 12.716-.83 20.391-1.33 24.062 11.853 2.635 9.462 3.202 14.907 2.024 19.42-1.275 4.887-4.696 8.813-10.176 13.943-24.825 23.243-46.073 16.17-59.526 6.146-4.333-3.23-8.631-5.718-12.788-8.125-5.917-3.426-11.25-6.514-15.397-10.943-4.695-5.014-7.867-11.748-8.638-22.635-.483-6.823-1.217-29.853 9.63-39.76 3.864-3.53 8.762-4.842 14.557-3.9z"/><path d="M-14.684 679.03C-13.3 698.575-3.354 704.334 8.162 711c3.893 2.254 7.918 4.585 11.966 7.601 12.802 9.541 33.015 16.277 56.609-5.812 10.572-9.899 12.594-14.683 7.807-31.875-.98-3.52-2.277-6.127-4.014-7.983-1.234-1.318-2.691-2.257-4.416-2.875-3.835-1.374-8.64-1.06-14.722-.664-4.073.266-8.69.567-13.856.397-10.967-.362-16.808-9.045-22.457-17.442-4.75-7.06-9.236-13.729-16.425-14.898-5.613-.913-10.363.364-14.12 3.795-10.366 9.468-9.676 31.316-9.218 37.787zm23.25-41.046c6.96 1.132 11.381 7.706 16.063 14.666 5.726 8.51 11.645 17.31 22.889 17.68 5.193.172 9.824-.13 13.91-.397 8.53-.556 14.644-.956 18.697 3.374 1.62 1.731 2.912 4.218 3.896 7.752 2.475 8.888 3.008 14.002 1.902 18.24-1.197 4.588-4.41 8.275-9.557 13.093-23.32 21.834-43.278 15.192-55.914 5.775-4.073-3.036-8.112-5.374-12.018-7.636-5.559-3.218-10.569-6.12-14.463-10.279-4.41-4.71-7.39-11.034-8.114-21.26-.454-6.409-1.143-28.044 9.043-37.348 3.628-3.313 8.226-4.545 13.666-3.66z"/><path d="M-12.445 679.815c1.297 18.298 10.607 23.689 21.388 29.93 3.642 2.11 7.41 4.29 11.196 7.113 11.985 8.931 30.909 15.238 52.996-5.442 9.9-9.268 11.793-13.748 7.31-29.844-.941-3.382-2.197-5.771-3.763-7.444-3.988-4.26-9.988-3.869-17.92-3.352-3.81.249-8.13.53-12.964.371-10.253-.337-15.717-8.458-21.001-16.314-4.447-6.61-8.647-12.853-15.383-13.948-5.257-.856-9.708.34-13.227 3.555-9.706 8.866-9.06 29.318-8.632 35.375zM9.327 641.42c6.505 1.058 10.641 7.207 15.02 13.716 5.36 7.968 10.903 16.207 21.433 16.553 4.86.16 9.195-.122 13.018-.372 7.977-.52 13.694-.894 17.484 3.155 1.514 1.618 2.721 3.942 3.64 7.245 2.316 8.313 2.815 13.097 1.781 17.06-1.119 4.288-4.125 7.736-8.939 12.243-21.813 20.423-40.482 14.21-52.301 5.402-3.812-2.84-7.593-5.03-11.248-7.146-5.2-3.01-9.887-5.724-13.53-9.615-4.124-4.405-6.911-10.322-7.589-19.885-.425-5.995-1.07-26.234 8.457-34.935 3.39-3.097 7.689-4.248 12.774-3.421z"/><path d="M-10.205 680.599c1.207 17.053 9.883 22.076 19.929 27.892 3.392 1.964 6.9 3.995 10.426 6.622 11.169 8.324 28.803 14.2 49.384-5.068 9.227-8.64 10.991-12.815 6.814-27.816-.879-3.154-2.05-5.383-3.51-6.943-3.72-3.972-9.311-3.607-16.704-3.125-3.55.231-7.572.494-12.073.346-9.54-.314-14.627-7.875-19.546-15.186-4.143-6.16-8.058-11.979-14.34-13-4.902-.798-9.052.318-12.334 3.316-9.047 8.262-8.446 27.318-8.046 32.962zm20.293-35.744c6.05.984 9.9 6.708 13.977 12.768 4.995 7.425 10.16 15.102 19.977 15.425 4.528.15 8.565-.114 12.127-.346 10.389-.678 16.66-1.087 19.656 9.672 4.19 15.047 2.358 18.83-6.662 27.274-20.308 19.013-37.686 13.23-48.689 5.03-3.551-2.646-7.073-4.685-10.478-6.657-4.84-2.803-9.204-5.329-12.596-8.952-3.84-4.1-6.434-9.607-7.064-18.509-.396-5.582-.997-24.425 7.87-32.524 3.154-2.88 7.151-3.95 11.882-3.18z"/><path d="M-7.966 681.383c1.12 15.806 9.16 20.462 18.47 25.853 3.142 1.819 6.391 3.7 9.657 6.134 10.352 7.714 26.696 13.161 45.77-4.698 8.555-8.009 10.191-11.88 6.318-25.786-.815-2.927-1.902-4.995-3.257-6.443-3.448-3.683-8.633-3.345-15.488-2.898-3.287.215-7.013.458-11.182.32-8.827-.29-13.536-7.29-18.09-14.058-3.84-5.71-7.47-11.103-13.296-12.05-4.548-.74-8.398.295-11.443 3.076-8.386 7.66-7.83 25.32-7.46 30.55zm18.815-33.092c5.596.91 9.16 6.208 12.934 11.818 4.63 6.882 9.417 13.998 18.521 14.298 4.196.138 7.936-.106 11.236-.32 6.87-.449 11.794-.77 15.056 2.714 1.302 1.392 2.34 3.39 3.131 6.23 3.879 13.928 2.183 17.429-6.166 25.245-18.8 17.603-34.89 12.25-45.076 4.659-3.29-2.453-6.553-4.342-9.709-6.169-4.481-2.595-8.521-4.934-11.662-8.288-3.554-3.796-5.956-8.893-6.54-17.134-.365-5.168-.922-22.615 7.285-30.111 2.917-2.664 6.614-3.654 10.99-2.942z"/><path d="M-5.727 682.167c1.032 14.561 8.438 18.85 17.013 23.814 2.891 1.674 5.881 3.405 8.886 5.644 9.535 7.107 24.59 12.124 42.159-4.324 7.882-7.38 9.389-10.946 5.82-23.758-.751-2.7-1.753-4.607-3.003-5.942-3.179-3.395-7.957-3.083-14.273-2.671-3.025.197-6.454.42-10.29.294-8.115-.267-12.445-6.704-16.634-12.931-3.538-5.26-6.88-10.228-12.254-11.102-4.193-.682-7.742.273-10.551 2.838-7.727 7.057-7.214 23.321-6.873 28.138zm17.337-30.44c5.141.836 8.42 5.71 11.89 10.868 4.265 6.34 8.675 12.894 17.066 13.17 3.863.128 7.306-.097 10.344-.295 8.839-.576 14.174-.924 16.72 8.218 3.567 12.81 2.007 16.029-5.67 23.216-17.295 16.193-32.095 11.269-41.464 4.286-3.03-2.258-6.033-3.997-8.938-5.678-4.124-2.388-7.84-4.54-10.729-7.625-3.269-3.492-5.478-8.18-6.015-15.759-.337-4.755-.85-20.806 6.698-27.699 2.68-2.447 6.077-3.357 10.098-2.703z"/><path d="M-3.488 682.95c.943 13.316 7.715 17.237 15.555 21.776 2.64 1.53 5.372 3.11 8.116 5.155 8.719 6.498 22.483 11.086 38.546-3.953 7.21-6.75 8.588-10.011 5.325-21.728-.69-2.473-1.607-4.22-2.751-5.441-2.909-3.107-7.28-2.822-13.057-2.445-2.764.18-5.896.384-9.4.27-7.4-.245-11.354-6.121-15.178-11.805-3.235-4.81-6.292-9.353-11.21-10.152-3.838-.624-7.088.25-9.659 2.599-7.067 6.454-6.598 21.322-6.287 25.725zm15.859-27.788c4.687.762 7.68 5.21 10.848 9.92 3.9 5.796 7.931 11.79 15.61 12.043 3.53.116 6.677-.089 9.453-.27 8.062-.526 12.93-.842 15.25 7.491 3.255 11.69 1.832 14.628-5.173 21.187-15.79 14.782-29.3 10.288-37.852 3.914-2.77-2.064-5.514-3.653-8.168-5.19-3.765-2.18-7.158-4.144-9.795-6.96-2.984-3.188-5-7.467-5.49-14.384-.308-4.342-.776-18.996 6.111-25.287 2.443-2.231 5.54-3.06 9.206-2.464z"/><path d="M-1.248 683.735c.855 12.07 6.991 15.623 14.096 19.736 2.39 1.384 4.862 2.816 7.346 4.666 7.902 5.889 20.377 10.048 34.934-3.58 6.536-6.12 7.786-9.077 4.828-19.7-.625-2.246-1.458-3.831-2.498-4.941-2.638-2.819-6.602-2.56-11.842-2.218-2.501.163-5.337.348-8.507.243-6.689-.22-10.264-5.535-13.722-10.676-2.933-4.36-5.703-8.477-10.168-9.203-3.483-.567-6.432.227-8.766 2.359-6.408 5.852-5.984 19.324-5.701 23.314zm14.38-25.138c4.233.69 6.94 4.712 9.805 8.971 3.534 5.254 7.188 10.686 14.154 10.916 3.197.105 6.047-.081 8.56-.245 5.211-.34 8.945-.584 11.416 2.056.985 1.052 1.77 2.563 2.367 4.708 2.944 10.57 1.657 13.227-4.677 19.157-14.283 13.373-26.503 9.307-34.239 3.542-2.508-1.87-4.994-3.308-7.398-4.7-3.406-1.972-6.475-3.75-8.861-6.298-2.7-2.883-4.523-6.753-4.966-13.008-.279-3.928-.703-17.187 5.525-22.875 2.206-2.014 5.003-2.762 8.314-2.224z"/><path d="M.99 684.52c.767 10.823 6.269 14.008 12.639 17.696 2.14 1.24 4.353 2.52 6.576 4.177 7.085 5.28 18.27 9.01 31.321-3.209 5.864-5.49 6.985-8.142 4.332-17.67-.562-2.018-1.31-3.443-2.244-4.44-2.369-2.53-5.926-2.298-10.626-1.991-2.24.146-4.779.311-7.617.218-5.976-.197-9.173-4.95-12.266-9.548-2.63-3.91-5.115-7.603-9.125-8.255-3.128-.509-5.778.204-7.875 2.12C.358 668.867.737 680.943.991 684.519zm12.903-22.487c3.779.615 6.2 4.213 8.762 8.022 3.17 4.711 6.446 9.581 12.698 9.788 2.865.094 5.418-.073 7.67-.22 6.512-.424 10.442-.68 12.313 6.037 2.632 9.452 1.482 11.827-4.18 17.128-12.777 11.963-23.707 8.327-30.627 3.17-2.247-1.675-4.475-2.964-6.628-4.21-3.047-1.765-5.793-3.355-7.927-5.635-2.415-2.578-4.046-6.04-4.442-11.632-.249-3.515-.628-15.378 4.94-20.463 1.967-1.798 4.464-2.466 7.42-1.985z"/><path d="M3.23 685.303c.679 9.578 5.544 12.396 11.18 15.659 1.89 1.094 3.844 2.225 5.806 3.687 6.269 4.672 16.164 7.972 27.709-2.837 5.19-4.86 6.184-7.208 3.836-15.64-.5-1.791-1.163-3.056-1.991-3.94-2.1-2.242-5.25-2.037-9.412-1.765-1.977.129-4.22.275-6.725.193-5.262-.174-8.082-4.367-10.81-8.421-2.328-3.46-4.526-6.727-8.082-7.306-2.773-.45-5.122.182-6.982 1.88-5.088 4.647-4.753 15.327-4.529 18.49zm11.424-19.835c3.324.541 5.459 3.714 7.718 7.073 2.804 4.168 5.703 8.478 11.243 8.66 2.532.084 4.788-.063 6.778-.193 5.737-.374 9.2-.6 10.845 5.31 2.32 8.332 1.307 10.426-3.684 15.098-11.27 10.553-20.911 7.346-27.014 2.798-1.987-1.48-3.955-2.62-5.858-3.722-2.689-1.556-5.111-2.959-6.994-4.97-2.13-2.274-3.568-5.326-3.917-10.257-.22-3.101-.555-13.568 4.353-18.05 1.731-1.582 3.928-2.17 6.53-1.747z"/><path d="M5.47 686.087c.59 8.333 4.821 10.783 9.72 13.62 1.64.949 3.335 1.93 5.037 3.198 5.452 4.063 14.058 6.934 24.096-2.465 4.519-4.23 5.383-6.273 3.34-13.61-.436-1.565-1.016-2.669-1.738-3.44-1.83-1.954-4.572-1.775-8.196-1.539-1.716.112-3.66.239-5.834.168-4.55-.15-6.992-3.782-9.355-7.294-2.024-3.009-3.936-5.851-7.038-6.356-2.42-.393-4.468.159-6.091 1.64-4.428 4.045-4.136 13.329-3.941 16.078zm9.945-17.183c2.87.467 4.719 3.214 6.676 6.124 2.438 3.624 4.96 7.373 9.786 7.532 2.2.073 4.16-.055 5.887-.168 5.13-.335 7.956-.52 9.376 4.582 2.009 7.214 1.132 9.026-3.187 13.07-9.765 9.142-18.116 6.365-23.402 2.426-1.727-1.286-3.436-2.276-5.089-3.233-2.33-1.349-4.428-2.564-6.06-4.306-1.844-1.97-3.09-4.614-3.392-8.883-.508-7.174.9-13.02 3.766-15.638 1.495-1.365 3.392-1.871 5.639-1.506z"/></g></g></g></g><g opacity=".2"><clipPath id="j"><path transform="matrix(.24 0 0 .24 221.04 623.28)" d="M0 0h498v372H0z"/></clipPath><g clip-path="url(#j)"><clipPath id="k"><path transform="matrix(.24 0 0 .24 221.04 623.28)" d="M-1-1h500v374H-1z" fill-rule="evenodd"/></clipPath><g clip-path="url(#k)"><path d="M427.042 751.7c-2.349-11.017-7.744-21.186-15.192-28.634-15.363-15.363-17.429-30.388-20.288-51.183-.98-7.138-2.094-15.23-3.89-24.118-2.258-11.17-9.461-18.886-20.83-22.316-8.64-2.605-19.33-2.605-30.105.003-10.13 2.452-18.977 6.894-24.27 12.187-6.557 6.557-7.874 14.75-9.034 21.979-1.766 10.99-3.166 19.67-22.019 17.66-28.097-2.997-46.614.613-55.04 10.73-6.501 7.804-4.7 17.096-3.624 20.728 2.815 9.497 10.712 12.747 18.35 15.89 8.505 3.498 16.538 6.804 17.662 18.24.919 9.337 5.128 16.953 12.174 22.024 9.784 7.042 24.507 8.784 41.459 4.903 14.353-3.286 21.546 3.292 30.653 11.622 9.45 8.645 21.213 19.405 45.29 20.684.995.053 1.974.08 2.94.08 15.79-.001 27.573-7.04 33.36-20.023 3.881-8.707 4.734-19.523 2.404-30.455zm-3.155 30.12c-5.992 13.445-18.599 20.364-35.505 19.456-23.782-1.263-34.937-11.467-44.778-20.47-7.347-6.72-13.867-12.684-24.201-12.684-2.208 0-4.59.272-7.192.868-16.716 3.826-31.205 2.133-40.793-4.77-6.848-4.928-10.94-12.34-11.836-21.435-1.173-11.93-9.813-15.484-18.168-18.922-7.459-3.069-15.172-6.242-17.874-15.362-1.038-3.505-2.78-12.468 3.467-19.968 8.123-9.752 26.908-13.361 54.32-10.438 19.634 2.095 21.157-7.378 22.918-18.347 1.142-7.106 2.436-15.16 8.804-21.528 5.19-5.19 13.894-9.552 23.881-11.97 10.633-2.573 21.172-2.578 29.673-.013 11.061 3.336 18.067 10.836 20.261 21.69 1.792 8.863 2.902 16.94 3.882 24.067 2.88 20.955 4.963 36.094 20.522 51.653 14.95 14.952 20.494 40.504 12.62 58.173zm-16.531-59.3c-14.561-14.562-16.52-28.803-19.229-48.513-.93-6.769-1.985-14.44-3.688-22.868-2.143-10.598-8.977-17.92-19.764-21.173-8.193-2.472-18.333-2.471-28.553.001-9.608 2.326-17.999 6.54-23.02 11.56-6.221 6.222-7.47 13.993-8.57 20.85-1.673 10.409-3 18.628-20.852 16.725-26.645-2.84-44.208.584-52.202 10.18-6.17 7.408-4.46 16.226-3.44 19.672 2.672 9.015 10.164 12.098 17.41 15.08 8.057 3.315 15.667 6.445 16.732 17.275.871 8.859 4.865 16.084 11.55 20.896 9.28 6.68 23.246 8.332 39.324 4.651 13.596-3.114 20.413 3.121 29.042 11.014 8.963 8.199 20.118 18.403 42.952 19.616.945.05 1.873.076 2.79.075 14.978 0 26.158-6.678 31.647-18.996 3.68-8.258 4.49-18.517 2.28-28.887-2.228-10.45-7.345-20.094-14.41-27.158zm11.377 55.71c-5.677 12.739-17.623 19.293-33.641 18.434-22.54-1.198-33.112-10.869-42.44-19.402-6.969-6.374-13.152-12.032-22.957-12.032-2.095 0-4.356.259-6.825.824-15.844 3.627-29.572 2.023-38.658-4.517-6.488-4.67-10.364-11.692-11.212-20.308-1.114-11.323-9.31-14.695-17.238-17.957-7.067-2.908-14.374-5.915-16.934-14.551-.983-3.32-2.633-11.808 3.283-18.911 7.696-9.24 25.497-12.658 51.48-9.889 18.635 1.989 20.081-7.003 21.753-17.413 1.082-6.733 2.307-14.364 8.34-20.397 4.918-4.917 13.167-9.052 22.633-11.343 10.077-2.438 20.063-2.443 28.12-.013 10.48 3.16 17.116 10.266 19.194 20.548 1.7 8.403 2.751 16.06 3.68 22.817 2.732 19.87 4.706 34.226 19.462 48.982 14.17 14.168 19.422 38.383 11.96 55.128zm-34.04-102.1c-.88-6.398-1.877-13.65-3.487-21.617-2.027-10.026-8.492-16.952-18.696-20.03-7.75-2.337-17.338-2.337-27.001.001-9.087 2.2-17.022 6.184-21.77 10.933-5.887 5.886-7.067 13.236-8.109 19.72-1.579 9.827-2.83 17.586-19.685 15.79-25.195-2.688-41.802.554-49.363 9.63-5.84 7.011-4.221 15.355-3.255 18.617 2.528 8.53 9.615 11.446 16.47 14.267 7.608 3.13 14.795 6.088 15.8 16.311.825 8.38 4.604 15.215 10.928 19.767 8.778 6.318 21.985 7.881 37.188 4.4 12.845-2.938 19.281 2.95 27.431 10.406 8.475 7.752 19.023 17.4 40.614 18.548.893.047 1.772.07 2.639.07 14.167 0 24.741-6.316 29.934-17.968 3.48-7.81 4.246-17.512 2.156-27.32-2.106-9.88-6.946-19.001-13.626-25.682-13.757-13.757-15.608-27.216-18.169-45.843zm28.886 98.51c-5.362 12.032-16.638 18.22-31.777 17.41-21.297-1.131-31.287-10.27-40.101-18.332-6.591-6.03-12.44-11.38-21.714-11.38-1.982 0-4.122.245-6.458.78-14.97 3.426-27.94 1.91-36.523-4.267-6.126-4.41-9.788-11.042-10.588-19.179-1.054-10.717-8.81-13.907-16.309-16.993-6.674-2.746-13.577-5.586-15.992-13.739-.929-3.135-2.486-11.15 3.099-17.855 7.27-8.728 24.091-11.956 48.641-9.339 17.637 1.882 19.003-6.627 20.586-16.478 1.022-6.362 2.18-13.572 7.877-19.269 4.645-4.645 12.439-8.55 21.382-10.715 9.523-2.305 18.958-2.309 26.57-.013 9.896 2.985 16.164 9.696 18.127 19.405 1.605 7.942 2.6 15.18 3.478 21.566 2.583 18.786 4.45 32.36 18.403 46.313 13.386 13.387 18.35 36.266 11.3 52.085zm-32.322-96.386c-.828-6.028-1.768-12.86-3.285-20.366-1.91-9.454-8.007-15.986-17.629-18.889-7.304-2.203-16.342-2.202-25.45.001-8.564 2.073-16.043 5.83-20.52 10.306-5.55 5.55-6.663 12.478-7.645 18.59-1.484 9.245-2.662 16.546-18.518 14.856-23.744-2.532-39.396.524-46.524 9.082-5.508 6.613-3.982 14.483-3.07 17.559 2.383 8.047 9.066 10.797 15.528 13.456 7.161 2.946 13.926 5.73 14.872 15.346.777 7.902 4.34 14.347 10.304 18.64 8.275 5.955 20.722 7.43 35.053 4.149 12.085-2.766 18.147 2.777 25.82 9.796 7.987 7.306 17.926 16.398 38.276 17.48.841.045 1.67.067 2.487.067 13.357 0 23.325-5.956 28.221-16.942 3.281-7.363 4.003-16.508 2.033-25.751-1.985-9.313-6.546-17.91-12.843-24.206-12.955-12.955-14.698-25.631-17.11-43.174zm27.168 92.796c-5.047 11.324-15.668 17.147-29.913 16.388-20.055-1.066-29.463-9.672-37.764-17.265-6.212-5.682-11.726-10.727-20.47-10.727-1.87 0-3.887.231-6.09.736-14.095 3.226-26.308 1.8-34.388-4.016-5.767-4.15-9.213-10.392-9.966-18.05-.995-10.11-8.306-13.12-15.377-16.028-6.284-2.586-12.78-5.259-15.053-12.929-.874-2.949-2.34-10.49 2.914-16.798 6.844-8.216 22.681-11.256 45.803-8.79 16.645 1.777 17.926-6.25 19.42-15.543.961-5.99 2.052-12.777 7.414-18.139 8.602-8.602 29.74-14.75 45.15-10.1 9.313 2.809 15.212 9.124 17.06 18.262 1.511 7.481 2.45 14.3 3.276 20.315 2.434 17.703 4.192 30.493 17.344 43.644 12.605 12.604 17.278 34.145 10.64 49.04zm-30.603-90.673c-.777-5.657-1.659-12.07-3.083-19.115-1.795-8.882-7.523-15.019-16.563-17.746-6.86-2.07-15.346-2.068-23.897 0-8.042 1.947-15.066 5.474-19.27 9.68-5.216 5.214-6.26 11.72-7.183 17.46-1.391 8.663-2.49 15.503-17.352 13.922-22.293-2.378-36.988.493-43.684 8.53-5.178 6.217-3.744 13.613-2.887 16.504 2.241 7.564 8.518 10.147 14.588 12.645 6.714 2.762 13.055 5.37 13.942 14.382.73 7.423 4.077 13.478 9.68 17.51 7.773 5.594 19.463 6.978 32.918 3.898 11.329-2.594 17.014 2.606 24.21 9.189 7.499 6.859 16.831 15.395 35.938 16.411.79.042 1.569.063 2.336.063 12.546 0 21.909-5.595 26.508-15.915 3.082-6.915 3.76-15.503 1.91-24.183-1.864-8.746-6.148-16.819-12.06-22.731-12.153-12.152-13.788-24.044-16.05-40.504zm25.45 87.083c-4.733 10.618-14.691 16.073-28.05 15.365-18.812-1-27.638-9.073-35.425-16.197-5.834-5.337-11.013-10.073-19.226-10.073-1.757 0-3.653.216-5.723.69-13.222 3.026-24.676 1.69-32.253-3.764-5.406-3.89-8.636-9.743-9.343-16.923-.935-9.503-7.804-12.33-14.447-15.063-5.89-2.424-11.983-4.93-14.112-12.117-.819-2.764-2.192-9.832 2.73-15.743 6.417-7.704 21.276-10.552 42.964-8.24 15.642 1.67 16.85-5.875 18.253-14.608.902-5.617 1.924-11.983 6.951-17.01 8.068-8.068 27.893-13.833 42.348-9.473 8.731 2.634 14.262 8.554 15.993 17.121 1.42 7.02 2.3 13.418 3.075 19.064 2.285 16.619 3.935 28.626 16.284 40.974 11.822 11.823 16.206 32.027 9.98 45.997zm-28.884-84.959c-.727-5.287-1.551-11.28-2.882-17.864-1.68-8.31-7.038-14.052-15.495-16.603-14.178-4.278-32.653 1.337-40.367 9.051-4.88 4.88-5.856 10.964-6.718 16.332-1.172 7.292-2.118 13.201-12.475 13.2-1.122 0-2.356-.07-3.71-.214-20.841-2.222-34.583.464-40.846 7.983-4.846 5.818-3.505 12.74-2.704 15.446 2.099 7.08 7.97 9.497 13.649 11.833 6.266 2.578 12.185 5.014 13.011 13.417.683 6.945 3.815 12.61 9.057 16.383 7.27 5.232 18.202 6.528 30.783 3.647 10.574-2.42 15.88 2.434 22.6 8.58 7.01 6.413 15.734 14.393 33.598 15.343.74.039 1.468.059 2.185.059 11.735 0 20.493-5.234 24.796-14.888 2.882-6.467 3.516-14.499 1.786-22.615-1.743-8.177-5.748-15.726-11.277-21.255-11.35-11.35-12.877-22.46-14.991-37.835zm23.73 81.369c-4.417 9.911-13.71 15.01-26.186 14.342-17.569-.934-25.813-8.475-33.086-15.128-5.456-4.99-10.3-9.42-17.983-9.42-1.644 0-3.418.202-5.356.646-12.346 2.826-23.043 1.579-30.118-3.514-5.045-3.631-8.06-9.093-8.719-15.795-.875-8.896-7.301-11.54-13.517-14.098-5.5-2.262-11.186-4.602-13.172-11.306-.764-2.579-2.046-9.172 2.546-14.685 5.99-7.192 19.866-9.852 40.125-7.69 1.384.147 2.644.218 3.797.217 11.055 0 12.1-6.49 13.289-13.892.842-5.245 1.797-11.19 6.488-15.88 7.535-7.535 26.05-12.916 39.546-8.846 8.15 2.459 13.311 7.984 14.927 15.978 1.326 6.56 2.148 12.539 2.873 17.814 2.136 15.535 3.679 26.759 15.224 38.304 11.04 11.042 15.135 29.908 9.322 42.953zm-27.165-79.245c-.676-4.917-1.442-10.49-2.68-16.614-1.564-7.739-6.554-13.085-14.43-15.462-13.192-3.978-30.385 1.246-37.563 8.425-4.544 4.544-5.454 10.206-6.256 15.202-1.205 7.5-2.159 13.422-15.019 12.052-19.389-2.07-32.177.433-38.006 7.433-4.516 5.42-3.266 11.868-2.52 14.39 1.956 6.597 7.422 8.846 12.708 11.021 5.819 2.394 11.314 4.656 12.081 12.453.636 6.466 3.553 11.74 8.434 15.254 6.767 4.87 16.94 6.076 28.647 3.396 9.818-2.248 14.748 2.262 20.99 7.972 6.522 5.966 14.638 13.39 31.26 14.274.689.037 1.366.055 2.034.055 10.924 0 19.077-4.873 23.083-13.862 2.682-6.018 3.273-13.493 1.662-21.046-1.622-7.61-5.349-14.634-10.494-19.779-10.547-10.546-11.966-20.872-13.931-35.164zm22.01 75.655c-4.102 9.204-12.735 13.935-24.32 13.319-16.328-.868-23.99-7.876-30.749-14.06-5.078-4.645-9.585-8.769-16.74-8.769-1.53 0-3.184.19-4.988.603-11.473 2.626-21.412 1.467-27.983-3.263-4.684-3.37-7.483-8.443-8.095-14.666-.816-8.29-6.8-10.752-12.588-13.134-5.107-2.1-10.388-4.274-12.231-10.494-.71-2.394-1.9-8.513 2.362-13.63 5.563-6.68 18.459-9.149 37.286-7.14 13.64 1.457 14.696-5.123 15.919-12.74.783-4.872 1.67-10.394 6.025-14.75 7-7 24.201-12.001 36.744-8.218 7.567 2.282 12.36 7.413 13.86 14.836 1.233 6.098 1.997 11.658 2.672 16.563 1.986 14.45 3.422 24.892 14.165 35.634 10.258 10.26 14.063 27.789 8.662 39.909zm-25.445-73.532c-.625-4.546-1.334-9.7-2.478-15.363-1.45-7.167-6.07-12.118-13.364-14.318-12.208-3.684-28.117 1.153-34.761 7.797-4.208 4.208-5.05 9.45-5.793 14.073-1.111 6.918-1.992 12.38-13.852 11.116-17.94-1.914-29.77.403-35.168 6.883-4.185 5.025-3.027 10.998-2.335 13.334 1.812 6.114 6.872 8.197 11.767 10.21 5.37 2.21 10.444 4.297 11.151 11.488.59 5.988 3.29 10.872 7.81 14.126 6.264 4.508 15.678 5.625 26.512 3.146 9.065-2.075 13.615 2.09 19.379 7.362 6.033 5.52 13.543 12.389 28.923 13.207.637.034 1.263.05 1.882.05 10.112 0 17.66-4.511 21.37-12.834 2.483-5.571 3.029-12.488 1.54-19.479-1.502-7.041-4.95-13.541-9.712-18.302-9.744-9.745-11.055-19.288-12.871-32.496zm20.291 69.941c-3.787 8.499-11.759 12.866-22.456 12.297-15.085-.802-22.165-7.278-28.411-12.991-4.7-4.3-8.873-8.116-15.496-8.116-1.418 0-2.95.175-4.622.558-10.599 2.426-19.778 1.358-25.847-3.011-4.323-3.112-6.907-7.793-7.472-13.539-.756-7.683-6.298-9.963-11.658-12.168-4.715-1.94-9.591-3.947-11.29-9.684-.656-2.208-1.753-7.853 2.177-12.572 5.138-6.167 17.049-8.446 34.448-6.592 12.643 1.35 13.618-4.747 14.753-11.804.722-4.501 1.542-9.602 5.561-13.622 6.466-6.466 22.356-11.086 33.942-7.59 6.985 2.106 11.41 6.842 12.794 13.693 1.14 5.638 1.846 10.777 2.47 15.312 1.837 13.368 3.165 23.025 13.105 32.965 9.477 9.477 12.992 25.67 8.002 36.864zm-23.726-67.818c-.574-4.176-1.225-8.909-2.276-14.111-1.334-6.596-5.586-11.152-12.297-13.177-11.224-3.385-25.851 1.061-31.96 7.17-3.873 3.872-4.647 8.691-5.33 12.943-.95 5.916-1.661 10.356-9.679 10.356-.905 0-1.904-.057-3.006-.174-16.487-1.759-27.363.372-32.329 6.334-3.853 4.626-2.788 10.126-2.15 12.276 1.668 5.632 6.324 7.547 10.826 9.4 4.923 2.025 9.573 3.939 10.221 10.523.542 5.509 3.028 10.004 7.187 12.998 5.76 4.146 14.417 5.174 24.377 2.894 8.307-1.9 12.48 1.919 17.767 6.755 5.546 5.073 12.448 11.386 26.585 12.137.586.031 1.162.047 1.731.047 9.302 0 16.245-4.151 19.658-11.808 4.785-10.735 1.555-25.67-7.512-34.737-8.942-8.941-10.146-17.701-11.813-29.826zm18.573 64.228c-3.473 7.791-10.778 11.797-20.593 11.274-13.842-.736-20.34-6.679-26.073-11.923-4.322-3.954-8.157-7.463-14.251-7.463-1.306 0-2.716.162-4.255.514-9.726 2.226-18.147 1.245-23.712-2.76-3.963-2.852-6.331-7.143-6.85-12.41-.696-7.077-5.795-9.175-10.726-11.204-4.324-1.78-8.794-3.619-10.35-8.873-.6-2.023-1.606-7.194 1.993-11.515 4.71-5.656 15.64-7.745 31.609-6.043 11.642 1.242 12.542-4.37 13.586-10.87.663-4.128 1.415-8.807 5.099-12.491 5.932-5.931 20.508-10.17 31.14-6.963 6.402 1.931 10.458 6.271 11.727 12.551 1.046 5.177 1.695 9.896 2.268 14.06 1.688 12.284 2.909 21.16 12.046 30.297 8.694 8.693 11.92 23.55 7.342 33.819zm-22.008-62.104c-.523-3.806-1.116-8.12-2.074-12.86-1.218-6.024-5.101-10.186-11.23-12.035-10.242-3.09-23.586.97-29.158 6.542-3.538 3.537-4.244 7.934-4.867 11.814-.96 5.98-1.659 10.296-11.52 9.247-15.035-1.604-24.956.343-29.489 5.784-3.522 4.23-2.549 9.256-1.967 11.22 1.526 5.148 5.777 6.898 9.888 8.589 4.475 1.841 8.702 3.58 9.29 9.558.495 5.03 2.765 9.135 6.564 11.87 5.258 3.784 13.157 4.722 22.24 2.642 7.551-1.728 11.348 1.747 16.158 6.146 5.058 4.627 11.351 10.385 24.246 11.07.535.028 1.06.042 1.58.042 8.49 0 14.829-3.79 17.945-10.78 4.366-9.796 1.42-23.42-6.853-31.693-8.138-8.138-9.235-16.115-10.753-27.156zm16.854 58.514c-3.158 7.084-9.814 10.73-18.729 10.25-12.6-.669-18.515-6.08-23.734-10.854-3.944-3.608-7.445-6.81-13.008-6.81-1.193 0-2.481.147-3.889.47-8.85 2.025-16.514 1.134-21.576-2.51-3.602-2.592-5.754-6.493-6.225-11.281-.637-6.47-5.294-8.387-9.797-10.24-4.113-1.692-7.997-3.29-9.41-8.06-.545-1.838-1.459-6.536 1.81-10.46 4.284-5.144 14.232-7.042 28.769-5.492 10.64 1.135 11.466-3.995 12.42-9.935.602-3.757 1.287-8.014 4.635-11.363 5.398-5.398 18.663-9.255 28.339-6.336 5.82 1.756 9.506 5.701 10.66 11.41.953 4.715 1.544 9.015 2.066 12.809 1.54 11.2 2.652 19.292 10.986 27.626 7.913 7.913 10.848 21.431 6.683 30.776zm-20.289-56.39c-.472-3.436-1.008-7.33-1.873-11.61-1.101-5.452-4.616-9.219-10.162-10.892-9.255-2.792-21.319.877-26.357 5.915-3.202 3.201-3.84 7.177-4.403 10.684-.864 5.375-1.487 9.256-10.353 8.313-13.583-1.449-22.55.312-26.65 5.235-3.192 3.832-2.31 8.384-1.783 10.164 1.382 4.664 5.227 6.246 8.946 7.776 4.028 1.658 7.832 3.223 8.36 8.594.449 4.552 2.503 8.266 5.942 10.741 4.755 3.423 11.896 4.272 20.105 2.393 6.793-1.554 10.215 1.574 14.547 5.537 4.57 4.18 10.256 9.382 21.909 10.001.483.025.959.038 1.427.038 7.68 0 13.414-3.429 16.233-9.754 3.946-8.855 1.284-21.171-6.193-28.648-7.337-7.337-8.326-14.53-9.695-24.488zm15.135 52.8c-2.842 6.378-8.834 9.658-16.864 9.228-11.358-.603-16.691-5.482-21.397-9.786-3.566-3.262-6.731-6.158-11.764-6.158-1.08 0-2.247.134-3.521.426-7.978 1.826-14.882 1.024-19.441-2.258-3.241-2.333-5.179-5.844-5.603-10.154-.577-5.864-4.791-7.598-8.867-9.274-3.702-1.524-7.2-2.963-8.47-7.25-.49-1.652-1.31-5.876 1.626-9.403 3.858-4.631 12.825-6.34 25.931-4.943 9.64 1.03 10.389-3.619 11.253-9 .544-3.384 1.16-7.22 4.173-10.233 4.863-4.863 16.817-8.337 25.537-5.708 5.237 1.58 8.555 5.13 9.593 10.266.86 4.255 1.393 8.135 1.864 11.558 1.391 10.116 2.396 17.425 9.928 24.957 7.13 7.13 9.775 19.312 6.022 27.732zm-18.57-50.677c-.421-3.065-.899-6.539-1.67-10.359-.987-4.88-4.133-8.251-9.097-9.749-8.27-2.496-19.052.784-23.555 5.287-2.866 2.866-3.437 6.42-3.94 9.555-.766 4.77-1.32 8.214-9.186 7.378-12.135-1.295-20.145.282-23.812 4.685-2.861 3.435-2.071 7.513-1.599 9.107 1.24 4.181 4.68 5.597 8.006 6.966 3.58 1.473 6.962 2.864 7.43 7.628.402 4.074 2.24 7.398 5.319 9.614 4.252 3.06 10.633 3.82 17.97 2.14 6.04-1.381 9.082 1.404 12.936 4.93 4.081 3.733 9.16 8.379 19.57 8.932.433.023.858.034 1.277.034 6.869 0 11.997-3.068 14.52-8.727 3.527-7.914 1.148-18.922-5.534-25.604-6.533-6.533-7.414-12.944-8.635-21.817zm13.416 47.087c-2.527 5.671-7.857 8.586-15 8.205-10.115-.538-14.867-4.884-19.058-8.717-3.188-2.917-6.018-5.505-10.521-5.505-.967 0-2.012.12-3.155.38-7.101 1.627-13.248.914-17.305-2.006-2.88-2.073-4.603-5.194-4.98-9.025-.517-5.258-4.288-6.81-7.936-8.31-3.293-1.355-6.403-2.635-7.53-6.438-.434-1.467-1.164-5.218 1.442-8.347 3.432-4.118 11.417-5.638 23.092-4.393 8.647.923 9.312-3.243 10.086-8.066.484-3.012 1.033-6.426 3.71-9.104 4.33-4.33 14.973-7.421 22.735-5.08 3.246.98 7.36 3.357 8.526 9.124.767 3.794 1.243 7.255 1.663 10.307 1.242 9.033 2.139 15.559 8.868 22.288 6.348 6.348 8.704 17.191 5.363 24.687zm-16.85-44.964c-.37-2.694-.79-5.749-1.47-9.107-.87-4.31-3.647-7.285-8.029-8.607-7.286-2.198-16.785.691-20.753 4.66-2.53 2.53-3.033 5.662-3.477 8.425-.67 4.166-1.16 7.173-8.02 6.443-10.683-1.14-17.738.253-20.972 4.136-2.53 3.037-1.832 6.641-1.415 8.05 1.096 3.699 4.13 4.947 7.066 6.155 3.132 1.289 6.091 2.506 6.5 6.664.353 3.595 1.977 6.53 4.694 8.485 3.749 2.698 9.373 3.37 15.836 1.89 5.279-1.208 7.948 1.23 11.324 4.32 3.593 3.287 8.065 7.378 17.233 7.865.38.02.756.03 1.125.03 6.058 0 10.581-2.707 12.807-7.7 3.108-6.975 1.013-16.673-4.874-22.56-5.73-5.731-6.505-11.359-7.575-19.149zm11.696 41.373c-2.212 4.965-6.87 7.515-13.136 7.183-8.873-.472-13.042-4.285-16.72-7.65-2.81-2.57-5.304-4.852-9.277-4.852-.854 0-1.777.106-2.787.337-6.228 1.425-11.617.802-15.17-1.756-2.52-1.814-4.027-4.545-4.356-7.898-.458-4.65-3.787-6.02-7.007-7.344-2.882-1.187-5.605-2.307-6.59-5.627-.379-1.282-1.017-4.558 1.259-7.29 3.005-3.608 10.009-4.937 20.252-3.844 7.645.816 8.263-3.045 8.92-7.13.424-2.64.905-5.633 3.247-7.975 3.796-3.796 13.127-6.506 19.933-4.454 2.84.857 6.44 2.938 7.46 7.982.674 3.334 1.092 6.374 1.461 9.057 1.093 7.948 1.882 13.692 7.809 19.618 5.565 5.567 7.63 15.073 4.702 21.643zM346.91 699.49c-.32-2.324-.682-4.959-1.268-7.857-.755-3.737-3.163-6.318-6.962-7.464-6.303-1.901-14.519.599-17.951 4.031-2.195 2.195-2.63 4.906-3.015 7.297-.572 3.56-.989 6.13-6.853 5.508-9.23-.984-15.332.222-18.133 3.586-2.2 2.64-1.594 5.771-1.231 6.995.953 3.214 3.582 4.296 6.125 5.343 2.685 1.104 5.221 2.147 5.57 5.699.307 3.116 1.715 5.66 4.072 7.357 3.246 2.336 8.111 2.92 13.7 1.639 4.526-1.036 6.814 1.06 9.714 3.712 3.105 2.84 6.97 6.375 14.895 6.796.33.017.654.026.974.026 5.246 0 9.165-2.346 11.093-6.673 2.69-6.034.878-14.425-4.214-19.517-4.928-4.927-5.595-9.773-6.516-16.478zm9.977 35.66c-1.897 4.257-5.897 6.451-11.272 6.16-7.63-.406-11.217-3.687-14.382-6.582-2.432-2.224-4.59-4.199-8.034-4.199-.742 0-1.543.092-2.42.292-5.355 1.226-9.984.691-13.036-1.505-2.158-1.554-3.45-3.895-3.732-6.769-.398-4.044-3.285-5.232-6.077-6.38-2.472-1.018-4.808-1.979-5.649-4.816-.325-1.096-.87-3.899 1.074-6.233 1.798-2.16 6.28-4.483 17.413-3.294 6.644.709 7.183-2.646 7.754-6.197.364-2.267.777-4.838 2.784-6.844 3.261-3.262 11.282-5.59 17.13-3.826 2.435.735 5.52 2.517 6.394 6.84.58 2.872.941 5.493 1.259 7.805.944 6.865 1.626 11.825 6.75 16.949 4.784 4.783 6.56 12.953 4.044 18.599z" fill="#707991"/></g></g></g><g opacity=".15"><clipPath id="l"><path transform="scale(.24)" d="M0 0h666v593H0z" fill-rule="evenodd"/></clipPath><g clip-path="url(#l)"><clipPath id="m"><path transform="scale(.24)" d="M-388.49 165.292 40.032-461.62 672.104-29.57 243.582 597.341l-632.072-432.05z"/></clipPath><g clip-path="url(#m)"><clipPath id="n"><path transform="scale(.24)" d="M-388.49 165.292 40.032-461.62 672.104-29.57 243.582 597.341l-632.072-432.05z"/></clipPath><g clip-path="url(#n)" fill="#707991"><path d="M-72.561 53.185c12.16-10.216 26.144-21.108 42.738-21.578 10.018-.286 19.12 3.816 28.033 7.903 9.305 4.281 18.796 8.138 28.589 11.17 18.478 5.708 38.144 8.66 57.428 5.904 17.138-2.452 34.313-9.496 46.124-22.534 11.34-12.517 17.054-29.854 14.555-46.64a53.91 53.91 0 0 0-1.316-6.25c-.15-.565-1.05-.396-.9.17 4.53 16.703.525 34.758-9.958 48.444-10.765 14.06-27.567 22.1-44.702 25.25-19.128 3.532-38.845 1.159-57.4-4.166A213.643 213.643 0 0 1 2.067 40.256c-8.973-4.027-17.957-8.784-27.95-9.494-16.304-1.147-30.657 8.21-42.816 18.043a229.496 229.496 0 0 0-4.451 3.682.443.443 0 0 0-.134.305.443.443 0 0 0 .108.315.443.443 0 0 0 .292.159.443.443 0 0 0 .323-.081z"/><path d="M-75.034 51.49C-63.327 41.34-49.878 30.263-33.76 29.14c9.684-.668 18.518 3.163 27.16 7.03 8.972 4.013 18.144 7.555 27.597 10.267 17.9 5.11 36.9 7.258 55.333 3.837 16.648-3.082 32.88-10.714 44.2-23.58 10.86-12.361 16.81-29.176 14.914-45.625a52.372 52.372 0 0 0-1.105-6.228c-.13-.551-1.003-.39-.87.164 3.927 16.45-.553 33.969-10.595 47.396-10.376 13.89-26.379 22.476-43.059 26.25-18.235 4.116-37.205 2.575-55.148-2.13A190.928 190.928 0 0 1-3.04 36.768c-8.648-3.766-17.308-8.245-26.937-8.578-15.864-.546-29.697 9.223-41.32 18.943a379.183 379.183 0 0 0-4.299 3.67.428.428 0 0 0-.16.3c-.013.122.02.23.097.325a.428.428 0 0 0 .299.161c.122.012.23-.02.325-.098z"/><path d="M-77.506 49.796c5.975-5.345 12.1-10.61 18.866-14.934 6.395-4.076 13.496-7.348 21.1-8.164 4.24-.434 8.418-.101 12.536.999 4.699 1.228 9.156 3.204 13.6 5.127 8.596 3.721 17.391 6.957 26.466 9.313 17.286 4.493 35.544 5.83 53.071 1.829 16.257-3.71 31.802-11.909 42.677-24.757 10.393-12.284 16.518-28.587 15.134-44.735a51.718 51.718 0 0 0-.834-5.928c-.109-.537-.948-.38-.84.158 3.305 16.174-1.599 33.166-11.23 46.34C103.016 28.748 87.82 37.85 71.6 42.238c-17.402 4.716-35.747 3.99-53.18-.14a168.997 168.997 0 0 1-26.273-8.706c-8.378-3.523-16.759-7.771-26.07-7.751-15.402.042-28.674 10.072-39.782 19.664a280.132 280.132 0 0 0-4.336 3.848c-.41.368.142 1.018.55.653l-.015-.01z"/><path d="M-79.97 48.108c5.769-5.346 11.641-10.585 18.147-15.003 6.107-4.145 12.918-7.663 20.293-8.809a31.508 31.508 0 0 1 12.111.467c4.48 1.034 8.726 2.84 12.953 4.606 8.255 3.439 16.701 6.38 25.421 8.41 16.83 3.91 34.497 4.403 51.241-.252 15.743-4.375 30.467-13.081 40.886-25.81 9.986-12.205 16.311-28.137 15.382-44.04a50.586 50.586 0 0 0-.617-5.454c-.085-.52-.897-.37-.809.152 2.674 15.898-2.623 32.382-11.89 45.3-9.673 13.507-24.098 23.04-39.822 28.065-16.52 5.28-34.16 5.424-51.052 1.928a148.756 148.756 0 0 1-25.566-7.883c-8.012-3.234-15.987-7.09-24.853-6.656-7.083.345-13.806 3.024-19.865 6.59-6.632 3.9-12.606 8.836-18.325 13.955a282.201 282.201 0 0 0-4.172 3.802c-.389.355.145.98.528.625l.01.007z"/><path d="M-82.45 46.404c5.592-5.33 11.3-10.594 17.573-15.123 5.879-4.243 12.433-7.972 19.613-9.405A29.26 29.26 0 0 1-33.96 21.8c4.395.836 8.557 2.553 12.694 4.204a139.812 139.812 0 0 0 24.23 7.394c16.27 3.273 33.176 2.848 49.006-2.326C67.274 26.084 81.31 16.871 91.348 4.195c9.522-11.997 16.003-27.396 15.65-42.878a51.899 51.899 0 0 0-.409-5.404c-.077-.493-.844-.357-.778.146 2.03 15.497-3.544 31.388-12.37 43.99-9.348 13.367-22.99 23.32-38.196 29.031-15.616 5.867-32.509 6.948-48.896 4.145a129.883 129.883 0 0 1-24.635-6.88c-7.678-2.949-15.23-6.445-23.654-5.735-6.918.586-13.437 3.54-19.235 7.222-6.382 4.05-12.15 8.99-17.674 14.124a275.224 275.224 0 0 0-4.11 3.848c-.367.349.141.952.51.6z"/><path d="M-84.912 44.694c5.454-5.367 11.007-10.674 17.104-15.32 5.619-4.275 11.878-8.184 18.823-9.913 3.47-.88 6.979-1.07 10.524-.57 4.292.624 8.352 2.227 12.387 3.751a120.344 120.344 0 0 0 23.233 6.39c15.702 2.555 31.829 1.183 46.72-4.531C58.645 18.833 71.963 9.2 81.632-3.367c9.141-11.883 15.723-26.785 15.919-41.95a49.48 49.48 0 0 0-.197-5.088c-.05-.474-.787-.339-.746.143C97.965-35.067 92.1-19.706 83.58-7.35 74.521 5.811 61.597 16.087 46.962 22.413 32.235 28.778 16.103 30.816.216 28.711a112.841 112.841 0 0 1-23.492-5.844c-3.874-1.391-7.666-3.037-11.67-4.038a28.538 28.538 0 0 0-11.03-.727c-6.622.92-12.739 4.067-18.222 7.757-6.206 4.174-11.8 9.198-17.192 14.36a1836.72 1836.72 0 0 0-4.023 3.913c-.347.34.142.92.488.575l.013-.013z"/><path d="M-87.386 43.003c5.315-5.404 10.714-10.743 16.63-15.511 5.332-4.287 11.224-8.31 17.823-10.351a25.304 25.304 0 0 1 10.216-1.107c4.005.42 7.802 1.808 11.571 3.146a104.089 104.089 0 0 0 22.187 5.388 84.234 84.234 0 0 0 22.74-.314 84.234 84.234 0 0 0 21.834-6.358A91.906 91.906 0 0 0 55.421 5.932a91.907 91.907 0 0 0 16.207-16.516c8.885-11.754 15.63-26.21 16.447-41.086a49.59 49.59 0 0 0 .02-4.94c-.027-.459-.751-.513-.725-.055.684 14.81-5.33 29.559-13.473 41.666a91.075 91.075 0 0 1-15.575 17.58 91.075 91.075 0 0 1-19.54 13.034 83.996 83.996 0 0 1-21.691 7.346 83.995 83.995 0 0 1-22.87 1.221 97.643 97.643 0 0 1-22.635-4.809c-3.692-1.237-7.32-2.725-11.143-3.545a25.746 25.746 0 0 0-10.327-.19c-6.357 1.211-12.163 4.535-17.365 8.271-6.048 4.335-11.495 9.455-16.77 14.684-1.29 1.28-2.57 2.57-3.843 3.869-.328.33.132.883.476.54z"/><path d="M-89.864 41.31c5.15-5.408 10.381-10.772 16.074-15.619 5.111-4.358 10.704-8.498 17.044-10.87a23.846 23.846 0 0 1 9.524-1.646c3.892.18 7.588 1.437 11.26 2.634a88.483 88.483 0 0 0 21.028 4.265c14.695 1.065 29.295-2.245 42.379-8.926A98.674 98.674 0 0 0 46.423-1.56a98.674 98.674 0 0 0 15.562-16.718c8.483-11.54 15.21-25.391 16.623-39.79.16-1.618.24-3.24.242-4.867-.002-.442-.694-.5-.701-.038-.002 14.43-6.184 28.63-14.057 40.465a98.346 98.346 0 0 1-15.04 17.671A98.346 98.346 0 0 1 30.304 8.836c-12.902 7.22-27.425 11.217-42.257 10.715a83.86 83.86 0 0 1-21.472-3.661c-3.463-1.045-6.85-2.356-10.417-3.01a23.184 23.184 0 0 0-10.027.32c-6.11 1.551-11.599 5.048-16.54 8.854-5.761 4.433-10.986 9.53-16.054 14.727a409.16 409.16 0 0 0-3.852 4.003c-.296.331.14.859.452.525z"/><path d="M-92.335 39.62c4.985-5.405 10.034-10.767 15.51-15.704 4.88-4.398 10.165-8.65 16.203-11.34 2.787-1.24 5.77-2.118 8.836-2.2 3.736-.09 7.322.982 10.877 2.02a74.84 74.84 0 0 0 19.966 3.126c14.154.205 27.907-4.084 40.074-11.163 6.52-3.822 12.57-8.28 18.15-13.376a107.453 107.453 0 0 0 14.97-16.86c8.2-11.404 14.968-24.8 16.928-38.838.21-1.505.354-3.021.435-4.55.022-.425-.64-.473-.66-.045-.331 6.718-2.051 13.315-4.444 19.58a101.615 101.615 0 0 1-10.187 19.668 107.704 107.704 0 0 1-14.491 17.7A107.704 107.704 0 0 1 21.938 1.889C9.89 9.472-3.825 14.484-18.142 14.846a71.936 71.936 0 0 1-20.436-2.482c-3.274-.876-6.49-2.03-9.863-2.472-3.199-.4-6.33-.098-9.393.907-5.8 1.865-10.965 5.495-15.621 9.335-5.598 4.599-10.698 9.785-15.659 15.057a571.496 571.496 0 0 0-3.656 3.924c-.284.313.141.824.435.505z"/></g></g></g></g></g></svg>