<svg xmlns="http://www.w3.org/2000/svg" width="500" height="500" viewBox="0 0 375 375"><clipPath id="a"><path transform="scale(.24)" d="M0 0h1562.5v1562.5H0z" fill-rule="evenodd"/></clipPath><g clip-path="url(#a)"><path d="M0 0h375v375H0z" fill="transparent"/></g><clipPath id="b"><path transform="scale(.24)" d="M0 0h1562.5v1562.5H0z" fill-rule="evenodd"/></clipPath><g clip-path="url(#b)"><path d="M0 0h375v375H0z" fill="transparent"/></g><clipPath id="c"><path transform="scale(.24)" d="M0 83.24h1562.5v1415.626H0z" fill-rule="evenodd"/></clipPath><g clip-path="url(#c)"><path d="M352.996 173.256c-16.533-32.663-41.356-55.104-69.897-63.187-56.025-15.866-86.442-41.392-108.651-60.029-22.292-18.705-35.747-29.997-57.24-14.413C87.119 57.44 86.96 87.115 86.795 118.53c-.168 31.528-.341 64.13-29.598 93.387-22.61 22.61-37.644 44.02-44.685 63.634-6.22 17.328-5.767 32.448 1.31 43.726 11.735 18.703 39.683 23.69 71.205 12.705 33.953-11.833 56.025-3.934 83.966 6.065 24.803 8.875 54.922 19.656 102.508 19.655 6.594 0 13.533-.208 20.83-.656 23.397-1.436 42.338-10.548 56.298-27.085 12.405-14.692 20.307-34.935 22.85-58.542 3.48-32.301-3.256-68.081-18.483-98.164zm17.04 98.009c-5.402 50.148-34.485 81.675-77.795 84.334-59.648 3.66-94.644-8.856-122.759-18.917-18.127-6.487-33.803-12.097-51.831-12.097-10.03 0-20.792 1.738-33.102 6.028-30.857 10.755-58.137 6.001-69.499-12.106-15.062-24.006 1.077-63.468 43.173-105.563 29.68-29.679 29.853-62.584 30.022-94.405.166-31.038.32-60.355 29.814-81.737 20.574-14.92 32.964-4.523 55.456 14.35 22.309 18.722 52.864 44.363 109.188 60.314 28.146 7.971 52.65 30.148 68.998 62.446 15.103 29.838 21.787 65.323 18.335 97.353zm-91.9-156.79c-53.016-15.014-81.8-39.168-102.815-56.804-21.11-17.715-33.852-28.41-54.221-13.643-28.492 20.657-28.642 48.75-28.8 78.493-.158 29.831-.322 60.678-28 88.356-40.338 40.338-55.686 78.34-41.057 101.656 11.117 17.717 37.587 22.442 67.436 12.04 32.12-11.193 53.003-3.72 79.442 5.74 23.476 8.4 51.986 18.605 97.027 18.603 6.242 0 12.81-.196 19.716-.62 22.155-1.36 40.091-9.99 53.31-25.647 11.746-13.912 19.227-33.078 21.635-55.427 3.294-30.578-3.083-64.449-17.497-92.926-15.652-30.923-39.154-52.169-66.176-59.82zm82.23 152.592c-5.111 47.44-32.622 77.265-73.59 79.78-56.451 3.467-89.562-8.38-116.166-17.9-17.16-6.14-32.001-11.452-49.068-11.452-9.497 0-19.684 1.645-31.341 5.708-29.187 10.171-54.986 5.68-65.73-11.441-14.244-22.703 1.028-60.033 40.855-99.859 28.1-28.1 28.264-59.25 28.425-89.374.156-29.366.303-57.102 28.2-77.327 19.45-14.102 31.167-4.269 52.436 13.58 21.118 17.72 50.039 41.99 103.353 57.089 26.627 7.541 49.81 28.522 65.276 59.08 14.292 28.234 20.616 61.81 17.35 92.116zM273.172 118.88c-50.005-14.162-77.155-36.945-96.98-53.58-19.93-16.727-31.96-26.822-51.2-12.874-26.897 19.5-27.038 46.013-27.187 74.083-.15 28.134-.304 57.226-26.403 83.325-38.069 38.069-52.55 73.939-38.737 95.953 10.496 16.73 35.484 21.194 63.666 11.376 30.289-10.556 49.983-3.51 74.918 5.414 22.148 7.926 49.053 17.553 91.547 17.553 5.891 0 12.083-.185 18.603-.585 20.912-1.284 37.843-9.43 50.32-24.21 11.086-13.13 18.147-31.22 20.419-52.31 3.109-28.855-2.91-60.817-16.51-87.69-14.772-29.183-36.952-49.232-62.456-56.455zm77.523 143.988c-4.892 45.4-30.181 72.82-69.387 75.227-53.246 3.273-84.477-7.906-109.571-16.886-16.193-5.793-30.197-10.805-46.302-10.805-8.964 0-18.58 1.553-29.582 5.387-27.515 9.59-51.836 5.358-61.96-10.777-13.427-21.4.978-56.598 38.535-94.155 26.52-26.521 26.677-55.916 26.828-84.343.147-27.692.287-53.848 26.587-72.916 18.321-13.284 29.368-4.015 49.417 12.81 19.924 16.72 47.212 39.619 97.517 53.865 25.108 7.11 46.97 26.897 61.555 55.714 13.479 26.63 19.443 58.296 16.363 86.879zm-82.486-139.582c-46.995-13.31-72.512-34.722-91.143-50.357-18.75-15.734-30.068-25.234-48.183-12.102-25.3 18.342-25.432 43.275-25.572 69.671-.14 26.437-.285 53.774-24.806 78.294-35.8 35.8-49.414 69.538-36.419 90.248 9.879 15.744 33.389 19.947 59.896 10.71 28.459-9.916 46.963-3.293 70.393 5.09 20.823 7.45 46.117 16.503 86.067 16.503 5.539 0 11.36-.175 17.49-.551 19.669-1.207 35.594-8.869 47.331-22.771 10.427-12.35 17.067-29.36 19.203-49.195 2.924-27.132-2.734-57.183-15.523-82.45-13.89-27.443-34.75-46.297-58.734-53.09zm72.815 135.385c-4.595 42.653-28.353 68.412-65.181 70.673-50.043 3.074-79.395-7.43-102.98-15.87-15.225-5.448-28.391-10.16-43.537-10.16-8.429 0-17.474 1.462-27.821 5.067-25.844 9.005-48.685 5.036-58.19-10.112-12.61-20.097.929-53.163 36.217-88.45 24.942-24.942 25.088-52.583 25.23-79.313.139-26.017.27-50.593 24.973-68.504 17.195-12.466 27.567-3.762 46.398 12.04 18.731 15.718 44.386 37.247 91.68 50.64 50.877 14.408 78.93 80.914 73.211 133.99zm-77.778-130.98c-43.986-12.457-67.869-32.499-85.307-47.132-17.573-14.746-28.179-23.645-45.164-11.332-23.703 17.185-23.828 40.538-23.958 65.262-.132 24.738-.267 50.32-23.208 73.262-33.53 33.53-46.278 65.135-34.102 84.543 9.26 14.758 31.292 18.703 56.128 10.046 26.622-9.278 43.941-3.082 65.867 4.765 19.498 6.976 43.18 15.452 80.588 15.451 5.187 0 10.638-.162 16.377-.515 18.426-1.131 33.346-8.31 44.342-21.334 9.767-11.568 15.986-27.502 17.988-46.08 2.738-25.407-2.561-53.55-14.538-77.212-13.01-25.702-32.547-43.361-55.013-49.723zm68.108 126.782c-4.3 39.905-26.524 64.005-60.977 66.12-46.832 2.876-74.31-6.954-96.387-14.854-14.257-5.102-26.59-9.514-40.772-9.514-7.896 0-16.368 1.368-26.061 4.747-24.173 8.424-45.534 4.716-54.421-9.447-11.792-18.796.88-49.729 33.899-82.747 23.363-23.363 23.5-49.249 23.633-74.281.129-24.345.25-47.34 23.36-64.094 16.067-11.65 25.769-3.51 43.379 11.268 17.538 14.718 41.56 34.875 85.844 47.417 47.604 13.482 73.854 75.717 68.503 125.385zM258.282 132.1c-40.976-11.606-63.225-30.275-79.47-43.909-16.394-13.756-26.29-22.056-42.145-10.56-22.108 16.027-22.224 37.799-22.346 60.849-.122 23.042-.248 46.868-21.611 68.23-31.261 31.262-43.142 60.735-31.782 78.84 8.641 13.772 29.191 17.455 52.358 9.382 24.79-8.64 40.92-2.868 61.342 4.44 18.17 6.502 40.243 14.4 75.108 14.4 4.833 0 9.914-.151 15.263-.48 17.184-1.054 31.098-7.75 41.354-19.896 9.106-10.786 14.906-25.643 16.772-42.963 2.552-23.684-2.388-49.918-13.552-71.975-12.128-23.962-30.344-40.426-51.29-46.358zm63.4 118.177c-4.002 37.157-24.696 59.598-56.772 61.567-43.635 2.676-69.227-6.48-89.793-13.838-13.29-4.755-24.786-8.869-38.008-8.869-7.363 0-15.26 1.276-24.3 4.426-22.502 7.842-42.384 4.394-50.651-8.782-10.976-17.492.83-46.293 31.578-77.043 21.781-21.783 21.913-45.916 22.037-69.25.12-22.672.234-44.086 21.746-59.682 14.94-10.833 23.97-3.257 40.36 10.497 16.347 13.718 38.734 32.504 80.009 44.193 44.334 12.556 68.78 70.52 63.795 116.78zM253.32 136.505c-37.966-10.753-58.582-28.053-73.635-40.685-15.211-12.765-24.394-20.47-39.125-9.79-20.51 14.87-20.618 35.062-20.732 56.439-.113 21.345-.23 43.417-20.014 63.201-28.992 28.992-40.007 56.332-29.463 73.135 8.021 12.785 27.091 16.206 48.588 8.716 22.96-8 37.9-2.654 56.817 4.115 16.845 6.027 37.307 13.35 69.627 13.35 4.482 0 9.192-.142 14.151-.446 15.941-.98 28.85-7.19 38.364-18.46 8.447-10.005 13.826-23.784 15.557-39.847 2.366-21.961-2.213-46.285-12.566-66.737-11.246-22.22-28.14-37.49-47.57-42.991zm58.693 109.573c-3.707 34.409-22.867 55.19-52.567 57.014-40.43 2.479-64.145-6.004-83.2-12.823-12.325-4.41-22.982-8.224-35.244-8.224-6.828 0-14.155 1.184-22.54 4.105-20.83 7.259-39.233 4.072-46.882-8.117-10.159-16.19.78-42.857 29.26-71.337 20.205-20.205 20.324-42.58 20.44-64.219.11-20.999.216-40.833 20.132-55.272 13.816-10.016 22.171-3.002 37.34 9.727 15.154 12.717 35.907 30.133 74.173 40.969 41.063 11.63 63.705 65.323 59.088 108.177zM248.356 140.91c-34.956-9.9-53.939-25.83-67.8-37.46-14.032-11.776-22.5-18.883-36.105-9.021-18.914 13.713-19.013 32.324-19.118 52.029-.104 19.647-.212 39.964-18.417 58.169-26.723 26.723-36.87 51.93-27.145 67.43 7.405 11.8 24.998 14.96 44.82 8.052 21.129-7.363 34.88-2.441 52.292 3.79 15.52 5.552 34.37 12.299 64.148 12.299 4.129 0 8.468-.13 13.037-.41 14.699-.903 26.6-6.63 35.374-17.022 7.787-9.224 12.747-21.925 14.342-36.731 2.18-20.237-2.04-42.653-11.579-61.498-10.367-20.482-25.94-34.555-43.85-39.627zM302.34 241.88c-3.41 31.661-21.038 50.782-48.363 52.46-37.224 2.285-59.06-5.529-76.607-11.807-11.356-4.064-21.178-7.579-32.478-7.579-6.294 0-13.05 1.092-20.78 3.786-19.16 6.677-36.082 3.75-43.113-7.453-9.34-14.887.732-39.423 26.942-65.633 18.627-18.626 18.737-39.246 18.842-59.187.103-19.326.2-37.58 18.52-50.862 12.689-9.197 20.372-2.75 34.321 8.956 13.961 11.716 33.081 27.76 68.336 37.746 37.794 10.702 58.63 60.127 54.38 99.573zm-58.947-96.564c-31.946-9.048-49.296-23.607-61.963-34.237-12.853-10.784-20.61-17.294-33.086-8.248-17.32 12.556-17.41 29.586-17.506 47.617-.095 17.952-.194 36.514-16.82 53.14-24.452 24.452-33.733 47.528-24.825 61.725 6.785 10.813 22.897 13.712 41.049 7.388 19.295-6.724 31.859-2.229 47.767 3.464 14.194 5.079 31.434 11.248 58.668 11.248 3.776 0 7.746-.119 11.924-.376 13.457-.826 24.353-6.07 32.386-15.584 7.128-8.443 11.667-20.067 13.126-33.616 3.946-36.628-15.493-82.545-50.72-92.521zm49.277 92.365c-3.115 28.914-19.21 46.376-44.158 47.907-34.019 2.09-53.979-5.052-70.014-10.791-10.39-3.717-19.375-6.933-29.714-6.933-5.761 0-11.943.998-19.02 3.465-17.486 6.094-32.931 3.43-39.341-6.788-8.524-13.584.681-35.987 24.622-59.929 17.048-17.048 17.148-35.913 17.245-54.157.093-17.652.182-34.326 16.906-46.45 11.56-8.38 18.571-2.498 31.302 8.185 12.768 10.715 30.254 25.389 62.501 34.52 34.52 9.78 53.554 54.933 49.671 90.97zm-54.241-87.959c-28.936-8.195-44.652-21.383-56.127-31.013-11.672-9.795-18.718-15.706-30.068-7.478-15.723 11.4-15.804 26.85-15.891 43.207-.087 16.254-.176 33.06-15.223 48.107-22.184 22.184-30.598 43.127-22.507 56.022 6.166 9.826 20.8 12.465 37.28 6.722 17.464-6.086 28.839-2.014 43.242 3.14 12.867 4.604 28.496 10.197 53.187 10.197 3.424 0 7.024-.108 10.812-.34 12.213-.75 22.103-5.51 29.396-14.147 6.468-7.661 10.586-18.209 11.91-30.5 3.582-33.22-14.054-74.867-46.011-83.917zm44.57 83.76c-2.818 26.167-17.381 41.97-39.953 43.355-30.812 1.893-48.895-4.576-63.421-9.775-9.422-3.37-17.57-6.287-26.95-6.287-5.227 0-10.836.906-17.26 3.145-15.816 5.511-29.78 3.108-35.572-6.123-7.706-12.282.632-32.553 22.304-54.224 15.468-15.469 15.56-32.58 15.647-49.126.086-15.98.166-31.073 15.292-42.04 10.432-7.565 16.773-2.242 28.283 7.416 11.576 9.714 27.428 23.017 56.664 31.297 31.252 8.848 48.482 49.732 44.967 82.363zm-49.533-79.354c-25.926-7.343-40.008-19.16-50.29-27.789-10.493-8.804-16.826-14.12-27.05-6.707-14.125 10.24-14.199 24.111-14.277 38.795-.077 14.556-.157 29.608-13.625 43.076-19.915 19.916-27.462 38.725-20.189 50.317 5.547 8.842 18.703 11.219 33.51 6.058 15.632-5.448 25.82-1.801 38.718 2.814 11.541 4.13 25.56 9.147 47.708 9.147 3.07 0 6.3-.097 9.698-.306 20.664-1.269 34.535-16.256 37.103-40.092 3.21-29.812-12.62-67.19-41.306-75.313zm39.862 75.158c-2.523 23.418-15.553 37.56-35.749 38.8-27.612 1.694-43.81-4.102-56.828-8.76-8.454-3.025-15.766-5.641-24.184-5.641-4.694 0-9.731.814-15.5 2.824-14.147 4.93-26.63 2.787-31.803-5.459-6.889-10.979.582-29.117 19.986-48.52 13.889-13.89 13.97-29.245 14.05-44.096.076-14.305.147-27.817 13.678-37.627 9.304-6.745 14.974-1.991 25.265 6.644 10.382 8.712 24.603 20.644 50.828 28.072 27.98 7.925 43.406 44.538 40.257 73.763zm-44.826-70.752c-22.916-6.49-35.365-16.937-44.455-24.564-9.311-7.815-14.932-12.533-24.029-5.938-12.53 9.084-12.594 21.374-12.664 34.385-.068 12.86-.14 26.157-12.028 38.045-17.645 17.646-24.326 34.323-17.87 44.613 4.929 7.855 16.604 9.972 29.74 5.394 13.798-4.808 22.798-1.59 34.192 2.489 10.216 3.656 22.624 8.096 42.229 8.095 2.718 0 5.577-.085 8.585-.27 18.323-1.126 30.621-14.411 32.898-35.54 2.845-26.405-11.182-59.511-36.598-66.71zm35.156 66.554c-2.227 20.67-13.724 33.152-31.544 34.247-24.405 1.497-38.728-3.627-50.235-7.744-7.487-2.678-13.965-4.997-21.42-4.997-4.16 0-8.625.722-13.74 2.504-12.474 4.346-23.477 2.466-28.033-4.794-6.07-9.676.533-25.683 17.667-42.816 12.31-12.31 12.383-25.91 12.453-39.063.067-12.634.13-24.566 12.065-33.219 8.178-5.93 13.175-1.737 22.245 5.874 9.19 7.712 21.777 18.274 44.992 24.849 24.71 7 38.331 39.341 35.55 65.159zm-40.12-62.148c-19.905-5.638-30.72-14.713-38.618-21.34-7.853-6.59-13.04-10.943-21.01-5.167-10.934 7.927-10.99 18.636-11.05 29.974-.06 11.162-.12 22.704-10.43 33.014-15.377 15.377-21.19 29.922-15.552 38.909 4.31 6.868 14.503 8.725 25.97 4.728 11.968-4.17 19.78-1.374 29.669 2.164 8.89 3.18 19.686 7.045 36.747 7.044 2.366 0 4.855-.074 7.473-.235 15.982-.981 26.708-12.565 28.693-30.987 2.477-22.997-9.746-51.833-31.891-58.104zm30.449 57.949c-1.93 17.923-11.896 28.746-27.34 29.694-21.2 1.305-33.644-3.15-43.642-6.727-6.52-2.333-12.16-4.352-18.656-4.352-3.625 0-7.518.63-11.978 2.184-10.802 3.767-20.328 2.145-24.264-4.13-5.254-8.373.483-22.246 15.348-37.11 10.731-10.732 10.795-22.578 10.856-34.032.058-10.96.113-21.312 10.45-28.807 7.054-5.112 11.378-1.483 19.226 5.103 7.998 6.711 18.95 15.903 39.156 21.625 21.441 6.07 33.259 34.143 30.844 56.552zm-35.412-53.544c-16.896-4.785-26.078-12.49-32.782-18.116-6.714-5.633-11.148-9.357-17.991-4.396-9.338 6.77-9.386 15.899-9.437 25.564-.05 9.464-.102 19.252-8.833 27.983-13.106 13.106-18.055 25.52-13.233 33.204 3.69 5.882 12.405 7.477 22.2 4.064 10.135-3.534 16.759-1.161 25.143 1.838 7.564 2.707 16.75 5.995 31.268 5.995 2.013-.001 4.13-.064 6.359-.2 13.641-.839 22.796-10.72 24.489-26.435 2.111-19.59-8.308-44.156-27.183-49.5zm25.741 49.345c-1.635 15.176-10.067 24.34-23.135 25.142-17.992 1.109-28.562-2.675-37.05-5.711-5.552-1.988-10.355-3.707-15.89-3.707-3.092 0-6.413.537-10.218 1.864-9.131 3.181-17.176 1.822-20.495-3.466-4.436-7.07.435-18.81 13.03-31.406 9.154-9.153 9.21-19.698 9.258-29.002.05-9.286.097-18.058 8.839-24.396 5.923-4.296 9.36-1.412 16.207 4.332 6.804 5.71 16.124 13.531 33.32 18.4 18.168 5.147 28.182 28.949 26.134 47.95z"/></g></svg>
