<?xml version="1.0" standalone="no"?>
<!DOCTYPE svg PUBLIC "-//W3C//DTD SVG 20010904//EN"
 "http://www.w3.org/TR/2001/REC-SVG-20010904/DTD/svg10.dtd">
<svg version="1.0" xmlns="http://www.w3.org/2000/svg"
 width="2160.000000pt" height="2160.000000pt" viewBox="0 0 2160.000000 2160.000000"
 preserveAspectRatio="xMidYMid meet">

<g transform="translate(0.000000,2160.000000) scale(0.100000,-0.100000)"
fill="#f3eced" stroke="none">
<path d="M10510 19334 c-25 -2 -121 -8 -215 -14 -1819 -117 -3594 -836 -5004
-2028 -1061 -898 -1889 -2029 -2421 -3307 -581 -1397 -784 -2951 -584 -4475
172 -1313 657 -2590 1401 -3694 327 -484 635 -857 1063 -1287 129 -129 296
-289 370 -355 962 -850 2062 -1465 3269 -1829 652 -197 1309 -311 2036 -356
241 -15 889 -6 1155 15 1789 145 3467 826 4850 1970 435 361 877 810 1235
1256 999 1246 1630 2725 1835 4300 81 623 93 1305 35 1940 -152 1661 -792
3258 -1832 4573 -415 525 -955 1061 -1480 1469 -1412 1098 -3096 1724 -4888
1818 -170 9 -710 11 -825 4z m1005 -949 c693 -60 1239 -172 1850 -378 365
-123 629 -234 990 -417 764 -386 1367 -818 1969 -1410 607 -597 1074 -1230
1458 -1977 288 -561 479 -1068 632 -1678 276 -1106 299 -2312 65 -3445 -219
-1056 -659 -2057 -1297 -2945 -647 -901 -1467 -1640 -2442 -2202 -1253 -722
-2711 -1077 -4163 -1014 -400 17 -665 46 -1042 111 -1070 187 -2128 620 -3030
1243 -387 267 -698 524 -1029 847 -1754 1716 -2585 4125 -2266 6564 199 1514
842 2926 1866 4096 150 172 530 552 699 700 938 818 1970 1363 3195 1689 402
107 951 194 1390 221 96 6 198 12 225 14 119 9 763 -4 930 -19z"/>
<path d="M10730 16834 c-332 -40 -559 -105 -835 -239 -240 -117 -426 -248
-615 -436 -219 -218 -602 -737 -810 -1099 -90 -156 -297 -575 -343 -695 -59
-152 -69 -245 -27 -245 16 0 87 77 244 267 229 276 650 479 1156 559 141 22
556 31 688 14 380 -46 714 -156 965 -317 217 -139 362 -273 656 -603 224 -253
386 -405 606 -572 89 -67 286 -197 400 -263 55 -32 102 -60 104 -62 7 -5 -139
-137 -243 -221 -143 -116 -311 -189 -487 -213 -56 -7 -476 -14 -1249 -19
-1150 -8 -1329 -13 -1575 -46 -320 -43 -691 -150 -951 -274 -204 -98 -473
-301 -638 -483 -175 -192 -379 -489 -595 -865 -104 -182 -884 -1712 -963
-1890 -205 -463 -282 -777 -281 -1142 1 -571 205 -1168 580 -1697 164 -232
428 -519 638 -695 352 -293 822 -585 1186 -734 301 -124 501 -174 939 -238
477 -69 734 -90 1085 -89 392 1 741 30 1100 91 l100 18 772 884 c444 510 766
886 758 888 -8 2 -65 -4 -127 -12 -337 -45 -439 -51 -948 -51 -518 0 -592 4
-990 55 -753 96 -1469 362 -2095 779 -375 250 -701 583 -933 952 -135 215
-243 435 -337 686 -95 251 -146 469 -161 687 l-7 95 39 16 c60 25 296 82 456
110 313 54 350 55 1567 55 1078 0 1465 8 1596 31 82 14 217 55 292 89 136 62
422 301 594 496 151 173 182 219 254 379 97 218 248 503 374 705 460 741 1010
1201 1631 1365 130 34 184 44 334 59 70 8 132 18 136 23 14 14 1269 2067 1266
2070 -1 2 -128 -28 -282 -67 -353 -88 -492 -115 -676 -135 -171 -17 -269 -19
-426 -5 -219 20 -429 80 -582 168 -359 206 -646 443 -921 762 -472 547 -992
896 -1541 1035 -217 56 -316 67 -588 70 -140 2 -271 1 -290 -1z"/>
</g>
</svg>
