<svg xmlns="http://www.w3.org/2000/svg" width="500" height="500" viewBox="0 0 375 375"><clipPath id="a"><path transform="scale(.24)" d="M0 0h1562.5v1562.5H0z" fill-rule="evenodd"/></clipPath><g clip-path="url(#a)"><path d="M0 0h375v375H0z" fill="transparent"/></g><clipPath id="b"><path transform="scale(.24)" d="M0 0h1562.5v1562.5H0z" fill-rule="evenodd"/></clipPath><g clip-path="url(#b)"><path d="M0 0h375v375H0z" fill="transparent"/></g><clipPath id="c"><path transform="scale(.24)" d="M0 115.448h1562.5v1331.25H0z" fill-rule="evenodd"/></clipPath><g clip-path="url(#c)"><path d="M369.228 257.357c-4.187-19.634-13.8-37.757-27.074-51.029-27.378-27.378-31.06-54.153-36.154-91.21-1.748-12.722-3.731-27.141-6.933-42.982-4.024-19.905-16.86-33.656-37.12-39.768-15.398-4.643-34.449-4.642-53.649.005-18.054 4.37-33.819 12.285-43.251 21.719-11.685 11.685-14.031 26.285-16.1 39.167-3.146 19.586-5.64 35.055-39.238 31.47-50.072-5.34-83.07 1.094-98.085 19.122-11.586 13.91-8.376 30.467-6.458 36.94 5.015 16.925 19.09 22.716 32.7 28.316 15.156 6.235 29.471 12.126 31.475 32.507 1.637 16.639 9.139 30.21 21.694 39.247 17.436 12.55 43.673 15.654 73.883 8.737 25.578-5.856 38.398 5.868 54.626 20.712 16.842 15.406 37.804 34.58 80.709 36.861 1.774.094 3.52.141 5.241.141 28.138-.001 49.137-12.544 59.45-35.682 6.915-15.516 8.436-34.79 4.284-54.273zm-5.623 53.675c-10.677 23.96-33.145 36.29-63.273 34.672-42.38-2.252-62.259-20.435-79.797-36.478-13.092-11.976-24.711-22.605-43.128-22.605-3.934 0-8.18.485-12.815 1.546-29.79 6.82-55.61 3.802-72.698-8.498-12.203-8.783-19.497-21.992-21.091-38.2-2.091-21.259-17.488-27.594-32.377-33.72-13.293-5.47-27.037-11.124-31.853-27.376-1.85-6.247-4.954-22.22 6.18-35.585 14.474-17.378 47.95-23.811 96.8-18.6 34.99 3.732 37.703-13.15 40.843-32.698 2.034-12.662 4.34-27.014 15.688-38.363 9.248-9.248 24.76-17.023 42.558-21.33 18.949-4.587 37.73-4.595 52.88-.026 19.71 5.946 32.196 19.312 36.106 38.654 3.193 15.795 5.172 30.19 6.918 42.89 5.133 37.342 8.843 64.321 36.57 92.049 26.644 26.644 36.522 72.18 22.49 103.668zm-29.46-105.678c-25.949-25.949-29.438-51.327-34.266-86.453-1.659-12.062-3.538-25.733-6.574-40.752-3.818-18.885-15.997-31.933-35.22-37.732-14.601-4.404-32.671-4.404-50.883.003-17.123 4.144-32.075 11.653-41.023 20.6-11.087 11.088-13.312 24.937-15.274 37.156-2.98 18.549-5.344 33.196-37.16 29.805-47.482-5.061-78.78 1.04-93.026 18.143-10.995 13.2-7.948 28.914-6.13 35.057 4.761 16.063 18.113 21.558 31.026 26.871 14.358 5.908 27.919 11.487 29.817 30.787 1.553 15.786 8.67 28.663 20.583 37.237 16.539 11.905 41.426 14.848 70.078 8.29 24.23-5.55 36.378 5.562 51.754 19.626 15.974 14.611 35.852 32.795 76.544 34.959 1.684.089 3.338.134 4.972.133 26.691-.002 46.615-11.901 56.397-33.853 6.56-14.716 8.001-32.999 4.062-51.478-3.969-18.621-13.089-35.81-25.677-48.399zm20.276 99.28c-10.117 22.701-31.405 34.381-59.952 32.85-40.166-2.134-59.007-19.368-75.63-34.574-12.419-11.36-23.438-21.442-40.912-21.442-3.733 0-7.763.46-12.161 1.468-28.235 6.463-52.7 3.604-68.892-8.05-11.562-8.321-18.47-20.835-19.98-36.19-1.985-20.178-16.593-26.188-30.72-32-12.593-5.183-25.616-10.541-30.177-25.932-1.753-5.916-4.692-21.043 5.85-33.7 13.716-16.466 45.437-22.558 91.742-17.623 33.208 3.544 35.785-12.48 38.764-31.03 1.929-12 4.112-25.6 14.864-36.35 8.762-8.763 23.463-16.13 40.331-20.213 17.959-4.346 35.755-4.356 50.114-.024 18.673 5.632 30.501 18.295 34.205 36.617 3.027 14.975 4.902 28.621 6.558 40.662 4.868 35.408 8.385 60.993 34.682 87.29 25.25 25.248 34.612 68.401 21.314 98.24zm-60.664-181.949c-1.567-11.402-3.344-24.325-6.213-38.523-3.611-17.867-15.133-30.21-33.318-35.695-13.81-4.165-30.897-4.165-48.118.002-16.192 3.919-30.333 11.02-38.796 19.483-10.489 10.49-12.592 23.587-14.45 35.143-2.813 17.512-5.043 31.34-35.08 28.139-44.898-4.79-74.492.986-87.967 17.162-10.406 12.494-7.523 27.362-5.801 33.175 4.504 15.202 17.134 20.399 29.35 25.425 13.56 5.58 26.367 10.85 28.159 29.068 1.469 14.934 8.203 27.115 19.473 35.226 15.642 11.26 39.179 14.045 66.27 7.842 22.892-5.237 34.361 5.257 48.886 18.543 15.103 13.815 33.899 31.008 72.376 33.054 1.592.084 3.158.126 4.703.126 25.246-.001 44.09-11.257 53.344-32.021 6.204-13.92 7.568-31.209 3.843-48.685-3.754-17.61-12.378-33.863-24.283-45.768-24.517-24.517-27.814-48.501-32.378-81.696zm51.479 175.552c-9.557 21.441-29.65 32.468-56.63 31.027-37.952-2.017-55.755-18.303-71.463-32.67-11.745-10.745-22.168-20.28-38.695-20.28-3.532 0-7.346.435-11.508 1.389-26.677 6.105-49.79 3.406-65.087-7.603-10.918-7.859-17.444-19.677-18.87-34.179-1.878-19.097-15.697-24.783-29.062-30.282-11.895-4.895-24.195-9.955-28.5-24.484-1.655-5.587-4.43-19.87 5.523-31.82 12.955-15.553 42.933-21.305 86.682-16.642 31.43 3.354 33.865-11.809 36.686-29.366 1.82-11.336 3.884-24.184 14.037-34.338 8.278-8.277 22.167-15.237 38.105-19.094 16.97-4.108 33.783-4.115 47.349-.024 17.635 5.32 28.806 17.279 32.303 34.582 2.861 14.153 4.635 27.051 6.199 38.432 4.603 33.478 7.928 57.667 32.795 82.533 23.855 23.857 32.7 64.628 20.136 92.82zm-57.6-171.768c-1.477-10.741-3.15-22.916-5.854-36.293-3.406-16.848-14.27-28.488-31.417-33.66-13.016-3.926-29.123-3.925-45.352.001-15.263 3.694-28.591 10.388-36.57 18.366-9.89 9.891-11.874 22.237-13.623 33.129-2.645 16.475-4.744 29.485-33.001 26.474-42.313-4.513-70.206.933-82.908 16.184-9.816 11.786-7.097 25.81-5.473 31.292 4.249 14.341 16.157 19.24 27.673 23.98 12.762 5.25 24.817 10.21 26.502 27.348 1.385 14.08 7.735 25.566 18.363 33.216 14.747 10.614 36.928 13.24 62.467 7.395 21.537-4.93 32.339 4.95 46.014 17.458 14.233 13.019 31.946 29.222 68.21 31.15 1.5.08 2.977.118 4.432.118 23.803 0 41.567-10.613 50.292-30.192 5.848-13.12 7.134-29.417 3.623-45.89-3.538-16.596-11.666-31.916-22.887-43.137-23.087-23.086-26.192-45.675-30.49-76.939zm48.415 165.37c-8.994 20.18-27.922 30.556-53.308 29.204-35.738-1.9-52.504-17.235-67.297-30.766-11.07-10.127-20.897-19.116-36.479-19.116-3.331 0-6.927.41-10.853 1.31-25.118 5.749-46.882 3.208-61.282-7.155-10.276-7.396-16.418-18.52-17.76-32.17C87.3 215.13 74.27 209.77 61.668 204.586c-11.197-4.608-22.775-9.371-26.824-23.04-1.558-5.255-4.17-18.694 5.193-29.935 12.196-14.641 40.419-20.059 81.624-15.664 29.662 3.166 31.946-11.139 34.606-27.7 1.715-10.672 3.658-22.77 13.213-32.324 15.33-15.33 52.998-26.285 80.46-18 16.598 5.007 27.11 16.26 30.402 32.546 2.694 13.33 4.366 25.481 5.84 36.202 4.337 31.547 7.47 54.34 30.907 77.777 22.463 22.461 30.792 60.849 18.962 87.391zm-54.536-161.585c-1.386-10.082-2.957-21.509-5.495-34.064-3.2-15.83-13.406-26.765-29.516-31.625-12.225-3.688-27.349-3.686-42.587 0-14.331 3.47-26.848 9.756-34.341 17.249-9.294 9.293-11.156 20.887-12.8 31.117-2.479 15.438-4.437 27.627-30.922 24.808-39.727-4.237-65.916.88-77.848 15.204-9.227 11.077-6.672 24.257-5.145 29.41 3.994 13.48 15.18 18.082 25.997 22.533 11.965 4.923 23.265 9.572 24.845 25.63 1.3 13.228 7.267 24.019 17.252 31.205 13.851 9.968 34.684 12.435 58.661 6.947 20.19-4.624 30.321 4.643 43.145 16.373 13.363 12.224 29.994 27.437 64.043 29.247 1.408.074 2.796.112 4.162.112 22.358 0 39.044-9.97 47.24-28.362 5.493-12.323 6.7-27.627 3.403-43.096-3.321-15.585-10.955-29.971-21.491-40.508-21.657-21.656-24.57-42.848-28.603-72.18zm45.352 155.187c-8.433 18.922-26.18 28.643-49.986 27.382-33.524-1.782-49.253-16.17-63.13-28.864-10.396-9.51-19.625-17.952-34.262-17.952-3.131 0-6.51.386-10.2 1.23-23.562 5.393-43.974 3.011-57.476-6.707-9.633-6.933-15.39-17.362-16.65-30.158-1.665-16.935-13.907-21.972-25.745-26.844-10.498-4.319-21.355-8.786-25.149-21.593-1.459-4.926-3.907-17.52 4.866-28.054 11.435-13.73 37.913-18.805 76.565-14.684 27.874 2.975 30.026-10.47 32.527-26.034 1.608-10.01 3.43-21.355 12.387-30.312 14.378-14.378 49.707-24.652 75.467-16.882 15.56 4.694 25.416 15.244 28.502 30.51 2.529 12.51 4.096 23.913 5.479 33.973 4.071 29.617 7.013 51.014 29.019 73.02 21.068 21.069 28.88 57.074 17.786 81.97zM275.394 134.04c-1.295-9.422-2.764-20.101-5.135-31.836-2.993-14.81-12.542-25.04-27.614-29.588-25.266-7.622-58.19 2.384-71.936 16.131-8.695 8.696-10.437 19.538-11.973 29.104-2.087 12.994-3.775 23.525-22.231 23.524-2 0-4.198-.124-6.612-.381-37.14-3.96-61.63.826-72.79 14.225-8.636 10.369-6.246 22.703-4.817 27.526 3.739 12.618 14.202 16.924 24.322 21.088 11.167 4.594 21.714 8.935 23.187 23.91 1.217 12.376 6.798 22.47 16.14 29.195 12.955 9.324 32.437 11.634 54.857 6.5 18.843-4.313 28.3 4.337 40.274 15.29 12.492 11.427 28.04 25.65 59.876 27.342 1.318.069 2.615.104 3.893.104 20.913 0 36.52-9.326 44.189-26.531 5.135-11.524 6.265-25.837 3.182-40.301-3.107-14.572-10.244-28.024-20.097-37.877-20.227-20.228-22.948-40.025-26.715-67.425zm42.288 145.004c-7.871 17.663-24.431 26.75-46.664 25.56-31.31-1.665-46.001-15.103-58.963-26.96-9.723-8.894-18.353-16.789-32.046-16.789-2.929 0-6.091.361-9.545 1.152-22.001 5.037-41.063 2.815-53.672-6.261-8.99-6.471-14.362-16.204-15.537-28.147-1.56-15.854-13.013-20.567-24.09-25.124-9.8-4.032-19.934-8.202-23.473-20.148-1.361-4.596-3.645-16.345 4.538-26.17 10.674-12.817 35.402-17.557 71.506-13.705 2.465.263 4.711.389 6.766.388 19.701-.002 21.562-11.565 23.681-24.757 1.501-9.346 3.203-19.94 11.562-28.3 13.429-13.426 46.423-23.017 70.475-15.763 14.522 4.381 23.72 14.227 26.6 28.474 2.363 11.69 3.828 22.344 5.12 31.745 3.807 27.684 6.556 47.686 27.131 68.26 19.675 19.677 26.971 53.299 16.611 76.545zm-48.41-141.22c-1.204-8.762-2.569-18.693-4.775-29.606-2.788-13.792-11.68-23.32-25.715-27.554-23.51-7.09-54.149 2.219-66.94 15.013-8.098 8.097-9.72 18.188-11.149 27.092-2.146 13.364-3.847 23.918-26.764 21.476-34.552-3.688-57.342.771-67.73 13.246-8.048 9.661-5.82 21.15-4.49 25.643 3.484 11.757 13.226 15.766 22.647 19.642 10.368 4.267 20.162 8.296 21.529 22.191 1.133 11.523 6.33 20.923 15.03 27.185 12.058 8.678 30.187 10.828 51.05 6.052 17.497-4.006 26.282 4.03 37.404 14.205 11.623 10.632 26.088 23.864 55.71 25.439 1.226.065 2.434.097 3.624.097 19.467 0 33.996-8.683 41.135-24.702 4.78-10.725 5.833-24.046 2.963-37.506-2.891-13.56-9.533-26.078-18.702-35.247-18.795-18.795-21.325-37.197-24.826-62.666zm39.226 134.823c-7.311 16.402-22.697 24.834-43.342 23.735-29.096-1.546-42.75-14.035-54.796-25.055-9.05-8.279-17.081-15.627-29.831-15.627-2.728 0-5.675.337-8.891 1.073-20.446 4.68-38.156 2.616-49.866-5.813-8.348-6.008-13.336-15.046-14.428-26.137-1.453-14.772-12.117-19.16-22.43-23.404-9.102-3.745-18.514-7.618-21.798-18.703-1.264-4.266-3.385-15.17 4.209-24.287 9.914-11.905 32.895-16.306 66.447-12.726 24.307 2.597 26.19-9.129 28.368-22.702 1.395-8.683 2.977-18.525 10.737-26.287 12.474-12.475 43.129-21.387 65.48-14.646 13.485 4.068 22.027 13.21 24.7 26.44 2.197 10.867 3.56 20.775 4.761 29.516 3.54 25.752 6.1 44.359 25.243 63.503 18.282 18.282 25.062 49.521 15.437 71.12zm-45.346-131.039c-1.115-8.102-2.377-17.285-4.417-27.377-2.582-12.773-10.816-21.596-23.814-25.517-21.757-6.564-50.108 2.055-61.948 13.895-7.5 7.498-9 16.84-10.323 25.079-1.98 12.328-3.55 22.063-24.686 19.81-31.968-3.41-53.052.718-62.671 12.267-7.458 8.953-5.395 19.599-4.162 23.76 3.23 10.896 12.248 14.608 20.97 18.196 9.571 3.938 18.612 7.658 19.873 20.472 1.05 10.671 5.862 19.375 13.919 25.174 11.161 8.033 27.938 10.024 47.245 5.605 16.153-3.696 24.262 3.726 34.534 13.12 10.752 9.837 24.135 22.078 51.543 23.536 1.135.06 2.251.09 3.353.09 18.022 0 31.474-8.04 38.083-22.872 4.425-9.927 5.398-22.255 2.744-34.712-2.675-12.548-8.821-24.132-17.306-32.616-17.364-17.366-19.701-34.372-22.937-57.91zm36.16 124.64c-6.75 15.145-20.955 22.929-40.02 21.914-26.881-1.43-39.498-12.97-50.63-23.152-8.375-7.661-15.81-14.462-27.613-14.462-2.528 0-5.257.311-8.237.994-18.888 4.323-35.247 2.42-46.062-5.367-7.704-5.545-12.308-13.887-13.316-24.125-1.347-13.693-11.222-17.756-20.774-21.685-8.403-3.458-17.093-7.034-20.122-17.257-1.167-3.936-3.122-13.996 3.882-22.405 9.155-10.99 30.382-15.051 61.387-11.747 22.532 2.406 24.27-8.46 26.291-21.037 1.288-8.02 2.748-17.11 9.912-24.274 11.522-11.523 39.839-19.756 60.486-13.528 12.447 3.755 20.332 12.194 22.8 24.404 2.03 10.046 3.29 19.206 4.4 27.287 3.275 23.822 5.641 41.032 23.355 58.746 16.889 16.889 23.154 45.744 14.261 65.694zM257.03 145.391c-1.023-7.442-2.183-15.877-4.057-25.148-2.376-11.753-9.953-19.873-21.912-23.481-20.002-6.032-46.07 1.89-56.956 12.776-6.901 6.901-8.28 15.49-9.497 23.066-1.694 10.542-2.962 18.456-17.25 18.454-1.612 0-3.393-.1-5.357-.31-29.38-3.133-48.763.665-57.612 11.288-6.867 8.245-4.968 18.046-3.833 21.878 2.973 10.035 11.271 13.449 19.294 16.75 8.774 3.61 17.06 7.02 18.215 18.753.965 9.818 5.395 17.828 12.808 23.164 10.265 7.388 25.691 9.22 43.44 5.158 14.804-3.388 22.242 3.419 31.663 12.036 9.883 9.041 22.183 20.292 47.377 21.63 1.043.056 2.07.084 3.084.083 16.576 0 28.95-7.397 35.031-21.042 8.527-19.131 2.771-45.745-13.387-61.903-15.934-15.934-18.08-31.546-21.05-53.152zm33.099 114.458c-6.189 13.884-19.207 21.023-36.698 20.091-24.668-1.31-36.247-11.902-46.464-21.247-7.702-7.046-14.537-13.3-25.397-13.3-2.327 0-4.84.288-7.583.916-17.332 3.967-32.339 2.22-42.257-4.918-7.06-5.083-11.281-12.73-12.205-22.117-1.24-12.612-10.328-16.35-19.116-19.966-7.705-3.17-15.672-6.448-18.446-15.811-1.067-3.605-2.86-12.822 3.554-20.521 8.395-10.08 27.871-13.802 56.329-10.768 20.747 2.211 22.35-7.79 24.211-19.371 1.182-7.358 2.521-15.696 9.087-22.261 10.57-10.57 36.547-18.124 55.494-12.409 11.409 3.442 18.636 11.176 20.898 22.367 1.865 9.226 3.02 17.636 4.041 25.057 3.01 21.89 5.184 37.706 21.467 53.99 15.494 15.493 21.242 41.967 13.085 60.268zm-39.22-110.673c-.933-6.783-1.99-14.47-3.697-22.919-2.17-10.735-9.09-18.15-20.011-21.445-18.252-5.506-42.032 1.726-51.963 11.657-6.304 6.304-7.562 14.14-8.673 21.054-1.712 10.655-2.956 18.348-20.528 16.479-26.795-2.859-44.475.611-52.552 10.307-6.277 7.537-4.543 16.495-3.505 19.996 2.718 9.173 10.294 12.29 17.62 15.304 7.974 3.282 15.508 6.382 16.556 17.033.881 8.966 4.926 16.28 11.697 21.153 9.37 6.744 23.447 8.416 39.635 4.71 13.455-3.08 20.222 3.113 28.792 10.952 9.014 8.245 20.23 18.506 43.21 19.728.953.05 1.89.075 2.815.075 15.13-.001 26.426-6.754 31.978-19.212 7.78-17.456 2.53-41.736-12.212-56.479-14.502-14.503-16.457-28.718-19.162-48.393zm30.035 104.275c-5.628 12.625-17.49 19.122-33.376 18.268-22.455-1.193-32.995-10.836-42.296-19.344-7.029-6.429-13.268-12.136-23.182-12.136-2.126 0-4.421.262-6.93.836-15.773 3.61-29.428 2.023-38.45-4.47-6.419-4.62-10.254-11.573-11.094-20.105-1.134-11.53-9.433-14.945-17.458-18.247-7.33-3.016-14.252-5.865-16.77-14.365-.971-3.275-2.6-11.647 3.225-18.64 7.635-9.166 25.363-12.55 51.27-9.788 18.96 2.024 20.432-7.12 22.132-17.705 1.075-6.694 2.293-14.281 8.26-20.25 9.62-9.618 33.26-16.491 50.502-11.29 10.372 3.13 16.941 10.16 18.997 20.332 1.698 8.404 2.752 16.067 3.682 22.828 2.743 19.96 4.727 34.38 19.579 49.232 14.1 14.1 19.33 38.191 11.909 54.844zM244.788 152.96c-.842-6.122-1.796-13.061-3.338-20.689-1.963-9.715-8.227-16.427-18.11-19.409-16.494-4.977-37.991 1.562-46.97 10.54-5.706 5.705-6.843 12.79-7.847 19.04-1.538 9.578-2.648 16.494-18.449 14.814-24.206-2.582-40.187.557-47.493 9.329-5.688 6.83-4.116 14.942-3.177 18.113 2.463 8.312 9.316 11.132 15.943 13.858 7.178 2.954 13.957 5.743 14.9 15.314.798 8.113 4.458 14.732 10.587 19.143 8.473 6.1 21.2 7.613 35.83 4.263 12.103-2.77 18.203 2.806 25.922 9.868 8.143 7.449 18.277 16.719 39.043 17.823.861.045 1.709.067 2.544.067 13.687 0 23.904-6.11 28.928-17.382 7.032-15.78 2.288-37.729-11.037-51.053-13.075-13.075-14.837-25.895-17.276-43.639zm26.971 94.094c-5.065 11.366-15.743 17.212-30.053 16.446-20.24-1.075-29.745-9.77-38.13-17.44-6.355-5.813-11.996-10.973-20.965-10.973-1.925 0-4.004.238-6.275.758-14.217 3.254-26.52 1.825-34.645-4.024-5.776-4.158-9.229-10.414-9.985-18.095-1.027-10.45-8.538-13.539-15.8-16.527-6.6-2.716-12.831-5.28-15.095-12.919-.872-2.945-2.337-10.472 2.898-16.757 6.875-8.253 22.854-11.299 46.21-8.809 17.179 1.836 18.514-6.449 20.054-16.038.968-6.031 2.066-12.867 7.436-18.236 8.666-8.667 29.97-14.858 45.509-10.173 9.333 2.816 15.245 9.142 17.095 18.295 1.534 7.583 2.483 14.498 3.322 20.598 2.48 18.027 4.269 31.052 17.692 44.475 12.705 12.706 17.42 34.414 10.732 49.42zm-33.093-90.31c-.75-5.461-1.602-11.652-2.978-18.459-1.758-8.698-7.363-14.705-16.21-17.373-14.739-4.45-33.951 1.397-41.976 9.42-5.107 5.108-6.125 11.441-7.023 17.029-1.364 8.5-2.35 14.637-16.37 13.147-21.624-2.307-35.899.503-42.434 8.35-5.098 6.12-3.69 13.389-2.849 16.23 2.208 7.45 8.339 9.973 14.268 12.412 6.38 2.625 12.406 5.105 13.242 13.595.714 7.26 3.991 13.184 9.477 17.132 7.577 5.453 18.948 6.808 32.024 3.815 10.763-2.463 16.184 2.5 23.052 8.783 7.274 6.653 16.325 14.933 34.877 15.919.77.04 1.528.061 2.275.061 12.24 0 21.38-5.467 25.874-15.552 6.286-14.104 2.046-33.721-9.861-45.629-11.643-11.642-13.213-23.067-15.388-38.88zm23.909 83.913c-4.503 10.106-14.002 15.301-26.732 14.622-18.026-.958-26.493-8.703-33.963-15.535-5.682-5.197-10.724-9.81-18.75-9.81-1.723 0-3.585.214-5.62.68-12.656 2.898-23.61 1.627-30.84-3.577-5.133-3.695-8.202-9.256-8.874-16.084-.921-9.369-7.643-12.134-14.143-14.809-5.867-2.414-11.41-4.694-13.418-11.473-.775-2.614-2.076-9.298 2.57-14.873 6.114-7.34 20.345-10.048 41.15-7.83 15.41 1.644 16.596-5.78 17.975-14.374.862-5.368 1.84-11.452 6.61-16.224 7.717-7.715 26.684-13.225 40.516-9.054 5.785 1.746 13.118 5.983 15.195 16.26 1.367 6.761 2.214 12.93 2.962 18.37 2.213 16.095 3.812 27.725 15.804 39.717 11.312 11.312 15.51 30.637 9.558 43.994zm-30.03-80.128c-.66-4.801-1.408-10.245-2.617-16.23-1.553-7.68-6.5-12.983-14.31-15.338-12.983-3.918-29.912 1.232-36.982 8.302-4.51 4.51-5.406 10.092-6.197 15.016-1.193 7.424-2.066 12.783-14.291 11.482-19.04-2.03-31.611.45-37.374 7.37-4.51 5.413-3.266 11.836-2.522 14.347 1.952 6.59 7.36 8.815 12.59 10.967 5.583 2.298 10.857 4.467 11.585 11.876.63 6.407 3.523 11.636 8.366 15.122 6.68 4.807 16.703 6.004 28.22 3.368 9.408-2.153 14.163 2.193 20.18 7.7 6.404 5.856 14.373 13.146 30.71 14.014.678.036 1.347.054 2.005.054 10.796 0 18.857-4.824 22.823-13.722 5.54-12.43 1.805-29.713-8.685-40.204-10.213-10.214-11.592-20.242-13.5-34.124zm20.845 73.73c-3.942 8.846-12.244 13.39-23.409 12.799-15.813-.84-23.242-7.636-29.796-13.632-5.008-4.581-9.453-8.648-16.533-8.648-1.523 0-3.168.189-4.967.6-11.099 2.54-20.702 1.431-27.035-3.128-4.49-3.232-7.175-8.099-7.762-14.074-.815-8.287-6.749-10.728-12.486-13.089-5.137-2.114-9.99-4.11-11.743-10.027-.677-2.284-1.813-8.123 2.242-12.992 5.355-6.428 17.836-8.797 36.091-6.85 13.623 1.455 14.726-5.425 15.896-12.707.756-4.705 1.613-10.037 5.786-14.211 6.765-6.764 23.393-11.594 35.523-7.936 5.061 1.527 11.477 5.235 13.294 14.224 1.2 5.94 1.946 11.358 2.603 16.14 1.948 14.164 3.354 24.4 13.916 34.96 9.917 9.92 13.599 26.862 8.38 38.57zm-26.966-69.946c-.57-4.142-1.214-8.837-2.258-14.001-1.346-6.66-5.637-11.26-12.408-13.302-11.232-3.388-25.873 1.067-31.99 7.184-3.912 3.912-4.688 8.742-5.372 13.004-1.02 6.345-1.762 10.925-12.212 9.816-16.45-1.755-27.323.394-32.316 6.39-3.919 4.705-2.839 10.284-2.193 12.465 1.698 5.729 6.384 7.656 10.916 9.521 4.785 1.969 9.304 3.828 9.926 10.156.546 5.554 3.056 10.088 7.255 13.111 5.785 4.164 14.456 5.203 24.415 2.921 8.066-1.846 12.144 1.888 17.312 6.615 5.533 5.061 12.419 11.36 26.543 12.112.587.03 1.165.046 1.736.046 9.35 0 16.332-4.18 19.769-11.892 4.792-10.754 1.564-25.706-7.51-34.78-8.783-8.782-9.97-17.417-11.613-29.366zm17.78 63.549c-3.38 7.587-10.509 11.496-20.087 10.976-13.598-.722-19.99-6.569-25.63-11.728-4.333-3.964-8.18-7.483-14.316-7.483-1.322 0-2.75.164-4.313.52-9.544 2.185-17.792 1.232-23.23-2.68-3.848-2.77-6.148-6.942-6.652-12.065-.709-7.206-5.854-9.323-10.829-11.37-4.406-1.813-8.57-3.525-10.067-8.58-.58-1.956-1.552-6.95 1.914-11.11 3.203-3.847 11.19-7.988 31.031-5.87 11.84 1.264 12.8-4.715 13.818-11.042.649-4.042 1.384-8.623 4.96-12.198 5.813-5.812 20.105-9.962 30.529-6.817 4.339 1.308 9.836 4.486 11.393 12.189 1.035 5.118 1.677 9.789 2.244 13.91 1.682 12.233 2.897 21.072 12.028 30.203 8.526 8.524 11.693 23.084 7.208 33.145z"/></g></svg>
